<?xml version="1.0" encoding="UTF-8" standalone="no"?>
<!-- Created with Inkscape (http://www.inkscape.org/) -->

<svg
   id="svg11008"
   sodipodi:docname="icon.svg"
   viewBox="0 0 142.22222 142.22222"
   sodipodi:version="0.32"
   version="1.0"
   inkscape:output_extension="org.inkscape.output.svg.inkscape"
   inkscape:version="1.2.1 (9c6d41e410, 2022-07-14)"
   width="512"
   height="512"
   inkscape:export-filename="icon2.png"
   inkscape:export-xdpi="36"
   inkscape:export-ydpi="36"
   xmlns:inkscape="http://www.inkscape.org/namespaces/inkscape"
   xmlns:sodipodi="http://sodipodi.sourceforge.net/DTD/sodipodi-0.dtd"
   xmlns:xlink="http://www.w3.org/1999/xlink"
   xmlns="http://www.w3.org/2000/svg"
   xmlns:svg="http://www.w3.org/2000/svg"
   xmlns:rdf="http://www.w3.org/1999/02/22-rdf-syntax-ns#"
   xmlns:cc="http://creativecommons.org/ns#"
   xmlns:dc="http://purl.org/dc/elements/1.1/">
  <defs
     id="defs11010">
    <filter
       id="filter10772"
       inkscape:collect="always"
       color-interpolation-filters="sRGB"
       x="-0.024814003"
       y="-0.02338532"
       width="1.049628"
       height="1.0467706">
      <feGaussianBlur
         id="feGaussianBlur10774"
         stdDeviation="1.1207242"
         inkscape:collect="always" />
    </filter>
    <linearGradient
       id="linearGradient4276"
       y2="319.94"
       xlink:href="#linearGradient4270"
       gradientUnits="userSpaceOnUse"
       x2="-246.16"
       y1="322.19"
       x1="-242.28"
       inkscape:collect="always" />
    <linearGradient
       id="linearGradient4270">
      <stop
         id="stop4272"
         style="stop-color:#bd7b1a"
         offset="0" />
      <stop
         id="stop4274"
         style="stop-color:#ebb052"
         offset="1" />
    </linearGradient>
    <linearGradient
       id="linearGradient4284"
       y2="316.06"
       xlink:href="#linearGradient4270"
       gradientUnits="userSpaceOnUse"
       x2="-252.58"
       y1="313.98001"
       x1="-256.17999"
       inkscape:collect="always" />
    <linearGradient
       id="linearGradient3308"
       y2="527.42999"
       xlink:href="#linearGradient14564"
       gradientUnits="userSpaceOnUse"
       x2="120.84"
       gradientTransform="matrix(0,-1.3613,1.2149,0,-447.3,506.75)"
       y1="527.42999"
       x1="111.37"
       inkscape:collect="always" />
    <linearGradient
       id="linearGradient3305"
       y2="520.42999"
       xlink:href="#linearGradient14564"
       gradientUnits="userSpaceOnUse"
       x2="117.27"
       gradientTransform="matrix(0,-1.3613,1.2149,0,-447.3,506.75)"
       y1="520.42999"
       x1="111.18"
       inkscape:collect="always" />
    <linearGradient
       id="linearGradient3302"
       y2="519.70001"
       xlink:href="#linearGradient14564"
       gradientUnits="userSpaceOnUse"
       x2="101.65"
       gradientTransform="matrix(0,-1.3613,1.2149,0,-447.3,506.75)"
       y1="519.70001"
       x1="90.710999"
       inkscape:collect="always" />
    <linearGradient
       id="linearGradient3299"
       y2="508.42999"
       xlink:href="#linearGradient14564"
       gradientUnits="userSpaceOnUse"
       x2="101.3"
       gradientTransform="matrix(0,-1.3613,1.2149,0,-447.3,506.75)"
       y1="508.42999"
       x1="93.491997"
       inkscape:collect="always" />
    <linearGradient
       id="linearGradient3296"
       y2="514.40002"
       xlink:href="#linearGradient14564"
       gradientUnits="userSpaceOnUse"
       x2="143.42999"
       gradientTransform="matrix(0,-1.3613,1.2149,0,-447.3,506.75)"
       y1="514.40002"
       x1="129.74001"
       inkscape:collect="always" />
    <linearGradient
       id="linearGradient3292"
       y2="506.67001"
       xlink:href="#linearGradient14564"
       gradientUnits="userSpaceOnUse"
       x2="82.508003"
       gradientTransform="matrix(0,-1.3613,1.2149,0,-447.3,506.75)"
       y1="507.82999"
       x1="74.241997"
       inkscape:collect="always" />
    <linearGradient
       id="linearGradient3289"
       y2="500.73001"
       xlink:href="#linearGradient14564"
       gradientUnits="userSpaceOnUse"
       x2="86.388"
       gradientTransform="matrix(0,-1.3613,1.2149,0,-447.3,506.75)"
       y1="496.62"
       x1="78.882004"
       inkscape:collect="always" />
    <linearGradient
       id="linearGradient3286"
       y2="491.56"
       xlink:href="#linearGradient14564"
       gradientUnits="userSpaceOnUse"
       x2="91.555"
       gradientTransform="matrix(0,-1.3613,1.2149,0,-447.3,506.75)"
       y1="491.56"
       x1="84.616997"
       inkscape:collect="always" />
    <linearGradient
       id="linearGradient3282"
       y2="464.26001"
       xlink:href="#linearGradient14564"
       gradientUnits="userSpaceOnUse"
       x2="144.28999"
       gradientTransform="matrix(0,-1.3613,1.2149,0,-447.3,506.75)"
       y1="457.73999"
       x1="136.64999"
       inkscape:collect="always" />
    <linearGradient
       id="linearGradient3279"
       y2="460.70001"
       xlink:href="#linearGradient14564"
       gradientUnits="userSpaceOnUse"
       x2="146.28999"
       gradientTransform="matrix(0,-1.3613,1.2149,0,-447.3,506.75)"
       y1="454.89001"
       x1="143.14"
       inkscape:collect="always" />
    <linearGradient
       id="linearGradient4113"
       y2="481.79001"
       xlink:href="#linearGradient14564"
       gradientUnits="userSpaceOnUse"
       x2="77.901001"
       gradientTransform="matrix(0,-1.3613,1.2149,0,-447.3,506.75)"
       y1="480.62"
       x1="70.960999"
       inkscape:collect="always" />
    <linearGradient
       id="linearGradient3276"
       y2="484.17999"
       xlink:href="#linearGradient14564"
       gradientUnits="userSpaceOnUse"
       x2="144.34"
       gradientTransform="matrix(0,-1.3613,1.2149,0,-447.3,506.75)"
       y1="478.70001"
       x1="145.39"
       inkscape:collect="always" />
    <linearGradient
       id="linearGradient4128"
       y2="329.35999"
       xlink:href="#linearGradient14564"
       gradientUnits="userSpaceOnUse"
       x2="470.17001"
       gradientTransform="matrix(0.97431,0,0,1.0918,-336.41,19.449)"
       y1="339.76999"
       x1="466.22"
       inkscape:collect="always" />
    <linearGradient
       id="linearGradient4136"
       y2="347.85999"
       xlink:href="#linearGradient14564"
       gradientUnits="userSpaceOnUse"
       x2="480.20999"
       gradientTransform="matrix(0.97431,0,0,1.0918,-336.41,19.449)"
       y1="350.35999"
       x1="475.45001"
       inkscape:collect="always" />
    <linearGradient
       id="linearGradient3270"
       y2="458.98001"
       xlink:href="#linearGradient14564"
       gradientUnits="userSpaceOnUse"
       x2="88.912003"
       gradientTransform="matrix(0,-1.3613,1.2149,0,-447.3,506.75)"
       y1="460.70001"
       x1="83.921997"
       inkscape:collect="always" />
    <linearGradient
       id="linearGradient3267"
       y2="453.39001"
       xlink:href="#linearGradient14564"
       gradientUnits="userSpaceOnUse"
       x2="88.739998"
       gradientTransform="matrix(0,-1.3613,1.2149,0,-447.3,506.75)"
       y1="450.26999"
       x1="81.665001"
       inkscape:collect="always" />
    <linearGradient
       id="linearGradient3263"
       y2="450.66"
       xlink:href="#linearGradient14564"
       gradientUnits="userSpaceOnUse"
       x2="125.26"
       gradientTransform="matrix(0,-1.3613,1.2149,0,-447.3,506.75)"
       y1="448.82001"
       x1="119.32"
       inkscape:collect="always" />
    <linearGradient
       id="linearGradient3260"
       y2="442.76999"
       xlink:href="#linearGradient14564"
       gradientUnits="userSpaceOnUse"
       x2="129.07001"
       gradientTransform="matrix(0,-1.3613,1.2149,0,-447.3,506.75)"
       y1="439.92999"
       x1="123.68"
       inkscape:collect="always" />
    <linearGradient
       id="linearGradient3256"
       y2="457.45001"
       xlink:href="#linearGradient14564"
       gradientUnits="userSpaceOnUse"
       x2="104.84"
       gradientTransform="matrix(0,-1.3613,1.2149,0,-447.3,506.75)"
       y1="453.78"
       x1="100.1"
       inkscape:collect="always" />
    <linearGradient
       id="linearGradient3253"
       y2="451.57001"
       xlink:href="#linearGradient14564"
       gradientUnits="userSpaceOnUse"
       x2="107.26"
       gradientTransform="matrix(0,-1.3613,1.2149,0,-447.3,506.75)"
       y1="452.35001"
       x1="102.12"
       inkscape:collect="always" />
    <linearGradient
       id="linearGradient3250"
       y2="442.53"
       xlink:href="#linearGradient14564"
       gradientUnits="userSpaceOnUse"
       x2="106.56"
       gradientTransform="matrix(0,-1.3613,1.2149,0,-447.3,506.75)"
       y1="440.29999"
       x1="100.98"
       inkscape:collect="always" />
    <linearGradient
       id="linearGradient3247"
       y2="438.07001"
       xlink:href="#linearGradient14564"
       gradientUnits="userSpaceOnUse"
       x2="108.79"
       gradientTransform="matrix(0,-1.3613,1.2149,0,-447.3,506.75)"
       y1="434.45001"
       x1="106.42"
       inkscape:collect="always" />
    <linearGradient
       id="linearGradient14564">
      <stop
         id="stop14566"
         style="stop-color:#5c2929"
         offset="0" />
      <stop
         id="stop14568"
         style="stop-color:#a5a7a9"
         offset="1" />
    </linearGradient>
    <linearGradient
       id="linearGradient4152"
       y2="457.76999"
       xlink:href="#linearGradient14564"
       gradientUnits="userSpaceOnUse"
       x2="148.47"
       gradientTransform="matrix(0,-1.3613,1.2149,0,-447.3,506.75)"
       y1="514.09003"
       x1="81.271004"
       inkscape:collect="always" />
    <linearGradient
       id="linearGradient10712"
       y2="351.04001"
       gradientUnits="userSpaceOnUse"
       x2="329.53"
       gradientTransform="matrix(1.1224084,0,0,1.1224084,-33.580651,-265.43434)"
       y1="356.19"
       x1="311.59"
       inkscape:collect="always">
      <stop
         id="stop10716"
         style="stop-color:#280b0b"
         offset="0" />
      <stop
         id="stop10718"
         style="stop-color:#a02c2c"
         offset="1" />
    </linearGradient>
    <linearGradient
       id="linearGradient10744"
       y2="317.76999"
       gradientUnits="userSpaceOnUse"
       x2="389.57001"
       gradientTransform="matrix(1.1224084,0,0,1.1224084,-41.315952,-271.50331)"
       y1="341.51001"
       x1="380.17999"
       inkscape:collect="always">
      <stop
         id="stop10740"
         style="stop-color:#fff6d5"
         offset="0" />
      <stop
         id="stop10742"
         style="stop-color:#e9c6af"
         offset="1" />
    </linearGradient>
    <linearGradient
       id="linearGradient10700"
       y2="312.01999"
       gradientUnits="userSpaceOnUse"
       x2="311.70001"
       gradientTransform="matrix(1.1224084,0,0,1.1224084,-41.315952,-271.50331)"
       y1="313.82001"
       x1="302.62"
       inkscape:collect="always">
      <stop
         id="stop10696"
         style="stop-color:#550000"
         offset="0" />
      <stop
         id="stop10698"
         style="stop-color:#a02c2c"
         offset="1" />
    </linearGradient>
    <filter
       id="filter10726"
       inkscape:collect="always"
       color-interpolation-filters="sRGB"
       x="-0.019030455"
       y="-0.011305549"
       width="1.0383568"
       height="1.0259423">
      <feGaussianBlur
         id="feGaussianBlur10728"
         stdDeviation="0.4743544"
         inkscape:collect="always" />
    </filter>
  </defs>
  <sodipodi:namedview
     id="base"
     bordercolor="#666666"
     inkscape:pageshadow="2"
     guidetolerance="10"
     pagecolor="#ffffff"
     gridtolerance="10000"
     inkscape:window-height="1017"
     inkscape:zoom="1.1196396"
     objecttolerance="10"
     showgrid="false"
     borderopacity="1.0"
     inkscape:current-layer="layer1"
     inkscape:cx="149.60171"
     inkscape:cy="308.13487"
     inkscape:window-y="-8"
     inkscape:window-x="-8"
     inkscape:window-width="1920"
     inkscape:pageopacity="0.0"
     inkscape:document-units="px"
     fit-margin-top="0"
     fit-margin-left="0"
     fit-margin-right="0"
     fit-margin-bottom="0"
     inkscape:showpageshadow="false"
     inkscape:window-maximized="1"
     inkscape:pagecheckerboard="0"
     inkscape:deskcolor="#d1d1d1" />
  <g
     id="layer1"
     inkscape:label="Layer 1"
     inkscape:groupmode="layer"
     transform="translate(-276.00751,-0.03125)">
    <path
       id="path10746"
       style="display:inline;fill:#917c6f;filter:url(#filter10772)"
       d="m 391.99,346.23 -75.92,20.42 c -3.48,0.94 -7.2,1.04 -7.59,-1.7 l -18.7,-87.21 c -0.87,-3.48 7.46,-1.2 11.08,-2.49 l 67.2,-22.17 c 5.28,-1.74 7.13,-0.89 8.23,3.3 l 21.41,81.48 c 1.23,4.68 -0.18,6.88 -5.71,8.37 z"
       inkscape:export-ydpi="50"
       sodipodi:nodetypes="cscccssss"
       inkscape:export-filename="/home/antiflash/www/portfolio_ico.png"
       transform="matrix(1.105157,0.10350289,0,1.1224084,-33.980901,-305.23369)"
       inkscape:export-xdpi="50"
       inkscape:connector-curvature="0" />
    <path
       id="path10710"
       style="display:inline;fill:url(#linearGradient10712);stroke-width:1.12241"
       d="m 402.85337,112.89709 -85.20202,22.91958 c -3.90598,1.05507 -8.08134,1.16731 -8.51908,-1.89687 L 288.14323,36.034578 c -0.97649,-3.917205 8.37317,-1.358114 12.43629,-2.806021 L 375.99413,8.3559877 c 5.93754,-1.964215 8.014,-0.998944 9.24865,3.7039483 l 24.03076,91.442604 c 1.38056,5.25287 -0.21326,7.73339 -6.42017,9.39455 z"
       inkscape:export-ydpi="50"
       sodipodi:nodetypes="cscccssss"
       inkscape:export-filename="/home/antiflash/www/portfolio_ico.png"
       inkscape:export-xdpi="50"
       inkscape:connector-curvature="0" />
    <path
       id="path10702"
       style="fill:url(#linearGradient10744);stroke-width:1.12241"
       d="m 399.48614,111.20226 -81.15012,21.84206 c -5.79163,1.12241 -6.94771,-1.97544 -7.04873,-4.8937 l -19.0136,-88.479439 c -0.97649,-3.917205 0.87548,-6.689554 4.9386,-8.13746 L 372.62691,6.6499267 c 5.93754,-1.95299 8.01399,-0.998943 9.24864,3.7039483 l 24.03077,91.453825 c 1.38056,5.25287 -0.21326,7.72217 -6.42018,9.39456 z"
       inkscape:export-ydpi="50"
       sodipodi:nodetypes="cccccssss"
       inkscape:export-filename="/home/antiflash/www/portfolio_ico.png"
       inkscape:export-xdpi="50"
       inkscape:connector-curvature="0" />
    <path
       id="path1813"
       style="fill:url(#linearGradient10700);stroke-width:1.12241"
       d="m 395.11997,106.83609 -81.15012,21.84207 c -3.19887,0.78568 -4.45596,2.25604 -4.82636,5.42123 L 287.90752,35.305013 c -0.97649,-3.917205 0.87548,-6.689554 4.9386,-8.137461 L 368.26074,2.2837587 c 5.93754,-1.952991 8.014,-0.998944 9.24864,3.703947 l 24.03077,91.4538393 c 1.38056,5.252855 -0.21326,7.722155 -6.42018,9.394545 z"
       inkscape:export-ydpi="50"
       sodipodi:nodetypes="cccccssss"
       inkscape:export-filename="/home/antiflash/www/portfolio_ico.png"
       inkscape:export-xdpi="50"
       inkscape:connector-curvature="0" />
    <path
       id="path10720"
       style="fill:none;stroke:#552200;filter:url(#filter10726)"
       d="m 378.43635,16.011134 22.03,83.769999 c 1.23,4.679997 -0.19,6.879997 -5.72,8.369997 l -72.3,19.46 c 0,0 -4.56,1.83 -6.21,-2.92"
       inkscape:export-ydpi="50"
       sodipodi:nodetypes="csscc"
       inkscape:export-filename="/home/antiflash/www/portfolio_ico.png"
       inkscape:export-xdpi="50"
       inkscape:connector-curvature="0"
       transform="matrix(1.1224084,0,0,1.1224084,-43.580467,-10.187471)" />
    <g
       aria-label="BR"
       transform="matrix(1.0744449,-0.32460535,0.32460535,1.0744449,-43.580467,-10.187471)"
       id="text6700"
       style="font-size:53.3333px;font-family:Forte;-inkscape-font-specification:Forte;fill:#ffcc00;stroke:#aa8800;stroke-width:0.277778">
      <path
         d="m 280.33564,151.98585 q 6.19791,-4.08854 13.90624,-4.08854 5.59896,0 9.14062,2.52604 3.54167,2.5 3.54167,6.48438 0,5.31249 -6.14583,7.10937 v 0.28645 q 0.625,0.15625 1.51041,0.41667 2.89063,-0.67708 4.53125,-2.76041 1.66667,-2.08334 1.66667,-5.02604 0,-3.69792 -3.04688,-6.5625 v -0.15625 l 0.28646,0.23438 q 3.41146,2.6302 3.41146,6.74478 0,5.67708 -5.88542,7.91667 2.55209,1.17187 3.95834,3.33333 1.43229,2.16145 1.43229,4.86979 0,3.8802 -2.8125,6.22395 -2.8125,2.31771 -7.5,2.31771 H 279.6846 l 3.59375,-3.07292 v -11.27603 q -1.53646,0 -3.59375,0.3125 l -0.20833,-0.75521 q 2.3177,-0.23438 3.80208,-0.23438 v -1.3802 h -0.65104 q -1.45834,0 -3.67188,0.20833 l 1.14584,-2.5 0.41666,0.026 q 1.01563,0.0781 1.53646,0.0781 0.78125,0 1.22396,0.0781 v -9.79166 z m 8.15104,-0.39062 v 11.74478 q 0.28646,-0.026 0.39062,-0.026 l 0.46875,0.026 q 0.10417,0 0.44271,0 v -10.65103 q 2.23958,-1.04167 4.375,-1.04167 2.44791,0 3.85416,0.88542 1.43229,0.88541 2.42188,3.02083 l -0.72917,-0.41667 q -1.95312,-2.9427 -5.57291,-2.9427 -2.03125,0 -3.64583,1.14583 v 9.99999 h 1.09374 q 4.97396,0 7.39583,-1.64062 2.44792,-1.66667 2.44792,-5.07812 0,-2.99479 -2.03125,-4.81771 -2.00521,-1.84895 -5.28646,-1.84895 -2.89062,0 -5.62499,1.64062 z m 0,13.8802 v 14.34895 h 1.30208 v -12.78645 q 1.84896,-0.13021 2.65625,-0.13021 4.32291,0 6.25,0.80729 1.95312,0.80729 3.09895,3.07292 h -0.3125 q -1.27604,-1.79688 -3.20312,-2.47396 -1.92708,-0.70313 -5.65104,-0.70313 l -2.13541,0.0521 v 12.16145 h 0.83333 l 3.77604,-0.13021 q 7.34374,-0.52083 7.34374,-7.13541 0,-4.14062 -2.42187,-5.65104 -2.42187,-1.53646 -9.06249,-1.53646 -0.65105,0 -2.47396,0.10417 z m 19.50519,1.82291 q 2.78646,2.16146 2.78646,6.5625 0,4.42708 -3.09895,7.3177 -3.02084,2.8125 -8.88021,2.8125 h -17.70832 l -0.44271,-0.70312 h 16.43228 q 5.36458,0 7.73437,-1.09375 5.26042,-2.44792 5.26042,-8.51562 0,-3.38542 -2.39583,-6.14583 z"
         style="font-family:Algerian;-inkscape-font-specification:Algerian"
         id="path6752" />
      <path
         d="m 315.36166,151.56919 q 6.17187,-3.56771 13.28124,-3.56771 5.52083,0 9.08854,2.39583 3.59375,2.39584 3.59375,6.09375 0,3.02083 -2.34375,5.36458 -2.34375,2.31771 -6.40625,3.35937 1.79688,4.94792 4.86979,9.63541 3.09896,4.6875 6.19791,7.1875 l -0.39062,0.13021 q -3.88021,1.32812 -7.60416,3.75 l -0.39063,0.26041 -0.13021,-0.83333 q -1.66666,-10.07812 -4.66145,-17.08332 l -0.10417,-0.26042 q -1.79687,0.83333 -4.8177,1.32812 l -0.20834,0.026 v 9.73957 l 4.58333,4.89583 h -13.46353 l -0.41667,-0.70312 h 12.39583 l -3.77604,-4.01042 v -10.49478 l 0.54688,-0.0781 q 2.96874,-0.3125 4.97395,-1.17187 -0.15625,-0.3125 -0.18229,-0.39063 l -0.26042,-0.7552 q -0.026,-0.0781 -0.13021,-0.3125 -1.61458,0.46875 -6.09374,1.01562 l -0.28646,0.0521 v 11.61458 l 2.96875,3.09896 h -11.51041 l 3.38541,-3.09896 v -8.74999 l -0.20833,0.026 q -1.51042,0.33854 -2.73437,0.75521 l -0.20834,0.0781 -0.23437,-0.52083 q 1.14583,-0.44271 1.79687,-0.59896 l 1.38021,-0.33854 0.20833,-0.0521 v -1.35417 q -1.53645,0 -3.82812,0.67708 l -0.28646,0.10417 q 0.0521,-0.36458 0.52084,-1.69271 0.0521,-0.10417 0.36458,-1.17187 0.026,-0.0781 0.0781,-0.23438 1.17188,0.0781 1.82292,0.0781 0.70312,0 1.30208,-0.0781 v -12.81249 q -1.19791,-0.72917 -2.47396,-1.22396 z m 7.86458,-0.67709 v 14.03645 q 0.75521,0 1.43229,-0.1302 v -12.8125 q 1.43229,-0.39062 3.4375,-0.39062 5.07812,0 6.90104,3.33333 -1.92709,-1.5625 -3.38542,-2.13541 -1.45833,-0.59896 -3.48958,-0.59896 -1.58854,0 -2.78646,0.3125 v 12.29166 l 0.28646,-0.0521 q 5.13021,-0.9375 7.60416,-2.9427 2.5,-2.03125 2.5,-5.26042 0,-2.89062 -2.23958,-4.76562 -2.23958,-1.90104 -5.65104,-1.90104 -2.73437,0 -4.60937,1.01562 z m 12.57812,15.625 q 1.64062,5.36458 5.80729,10.49478 2.60416,3.20312 6.58853,5.75521 -5.96353,1.58854 -11.19791,4.84374 l -0.23437,0.15625 -0.52083,-0.41666 q 4.97395,-3.25521 10.59895,-4.79167 -7.5,-4.99999 -11.79687,-15.98957 l -0.15625,-0.44271 q 7.96874,-3.02083 7.96874,-9.21874 0,-2.55209 -2.05729,-5.57292 2.63021,2.39583 2.63021,6.09375 0,5.98958 -7.6302,9.08854 z"
         style="font-family:Algerian;-inkscape-font-specification:Algerian"
         id="path6754" />
    </g>
  </g>
  <metadata
     id="metadata4881">
    <rdf:RDF>
      <cc:Work>
        <dc:format>image/svg+xml</dc:format>
        <dc:type
           rdf:resource="http://purl.org/dc/dcmitype/StillImage" />
        <cc:license
           rdf:resource="http://creativecommons.org/publicdomain/zero/1.0/" />
        <dc:publisher>
          <cc:Agent
             rdf:about="http://openclipart.org/">
            <dc:title>Openclipart</dc:title>
          </cc:Agent>
        </dc:publisher>
        <dc:date>2009-07-25T06:34:40</dc:date>
        <dc:description>a set of icons to symbolize the sectors of my website. Each icon is unique</dc:description>
        <dc:source>https://openclipart.org/detail/27361/icons-by-antiflash</dc:source>
        <dc:creator>
          <cc:Agent>
            <dc:title>antiFlash</dc:title>
          </cc:Agent>
        </dc:creator>
        <dc:subject>
          <rdf:Bag>
            <rdf:li>cartoon</rdf:li>
            <rdf:li>cleanup</rdf:li>
            <rdf:li>design</rdf:li>
            <rdf:li>gears</rdf:li>
            <rdf:li>icons</rdf:li>
            <rdf:li>mail</rdf:li>
            <rdf:li>pencil</rdf:li>
            <rdf:li>portfolio</rdf:li>
            <rdf:li>ruler</rdf:li>
            <rdf:li>sales</rdf:li>
            <rdf:li>sign</rdf:li>
            <rdf:li>web</rdf:li>
          </rdf:Bag>
        </dc:subject>
      </cc:Work>
      <cc:License
         rdf:about="http://creativecommons.org/publicdomain/zero/1.0/">
        <cc:permits
           rdf:resource="http://creativecommons.org/ns#Reproduction" />
        <cc:permits
           rdf:resource="http://creativecommons.org/ns#Distribution" />
        <cc:permits
           rdf:resource="http://creativecommons.org/ns#DerivativeWorks" />
      </cc:License>
    </rdf:RDF>
  </metadata>
</svg>
