<svg xmlns="http://www.w3.org/2000/svg" xmlns:xlink="http://www.w3.org/1999/xlink" viewBox="0 0 1200 1200"><script xmlns="">(function(){const e=()=&gt;{};let t=null,o=null,n=[],i=e,r=e,a=e,s=e;try{i=window.fetch,r=window.XMLHttpRequest.prototype.open,a=window.XMLHttpRequest.prototype.send,s=window.XMLHttpRequest.prototype.setRequestHeader}catch(e){0}function c(e){return!(!window.XMLHttpRequest||!window.XMLHttpRequest.prototype||"function"!=typeof window.XMLHttpRequest.prototype[e])}function d(){let e=[];return{subscribe:t=&gt;{e.push(t)},next:t=&gt;{e.length&amp;&amp;e.forEach((e=&gt;e(t)))},clear:()=&gt;{e.length=0}}}const l=new d,p=new WeakMap,u=new WeakMap,E=new WeakMap;c("open")&amp;&amp;c("send")&amp;&amp;c("setRequestHeader")&amp;&amp;(window.XMLHttpRequest.prototype.open=function(...e){if(p.set(this,{method:e[0]&amp;&amp;e[0].toUpperCase()||"GET"}),!0===this.__amicabletbecoxhro||"OFF"===t){r.apply(this,e);const t=u.get(this);t&amp;&amp;t.next()}else{const t=u.get(this)||new d;u.set(this,t),this.__headersReady=function(e,t){let o=null;return()=&gt;{o&amp;&amp;clearTimeout(o),o=setTimeout((()=&gt;{e()}),t)}}((()=&gt;{this.__onPendingHeadersSet&amp;&amp;this.__onPendingHeadersSet()}),50),l.subscribe((()=&gt;{c("open")&amp;&amp;window.XMLHttpRequest.prototype.open.apply(this,e)}))}},window.XMLHttpRequest.prototype.setRequestHeader=function(...e){if(this.readyState===XMLHttpRequest.OPENED||"OFF"===t)s.apply(this,e);else{E.set(this,!0);const t=u.get(this);t&amp;&amp;t.subscribe((()=&gt;{s.apply(this,e),this.__headersReady()}))}},window.XMLHttpRequest.prototype.send=function(e){if(this.addEventListener("readystatechange",(()=&gt;{if("OFF"!==o&amp;&amp;this.readyState===XMLHttpRequest.DONE)try{const t=p.get(this),i=t&amp;&amp;"string"==typeof t.method&amp;&amp;t.method.toUpperCase()||"";let r,a=[];try{const e=this.getAllResponseHeaders();a=(e&amp;&amp;e.trim().split(/[\r\n]+/)).reduce(((e,t)=&gt;{try{const o=t.split(": "),n=o.shift(),i=o.join(": ");e.push({active:!0,header:n,value:i})}catch(e){}return e}),[])}catch(e){a=[]}try{r="string"==typeof this.response?this.response:JSON.stringify(this.response)}catch(e){r=this.response}const s={type:"STASH_REQUESTS",payload:[[{method:i,requestURL:this.responseURL,responsePayload:r,requestPayload:e,status:this.status,timestamp:Date.now(),responseHeaders:a}]]};"ON"===o?window.postMessage(s,"*"):n.push(s.payload[0][0])}catch(e){}})),"OFF"===t)a.call(this,e);else if(E.get(this))this.__onPendingHeadersSet=()=&gt;{E.delete(this),c("send")&amp;&amp;this.readyState===XMLHttpRequest.OPENED&amp;&amp;window.XMLHttpRequest.prototype.send.call(this,e),this.__onPendingHeadersSet=null};else if(this.readyState===XMLHttpRequest.OPENED&amp;&amp;!0===this.__amicabletbebypoxhrs){Object.defineProperty(this,"readyState",{writable:!0,configurable:!0,value:XMLHttpRequest.LOADING});const e=new Event("readystatechange");this.dispatchEvent(e)}else if(this.readyState===XMLHttpRequest.OPENED&amp;&amp;!0===this.__amicabletbecoxhrs)a.call(this,e);else{const t=u.get(this);t&amp;&amp;t.subscribe((()=&gt;{c("send")&amp;&amp;this.readyState===XMLHttpRequest.OPENED&amp;&amp;window.XMLHttpRequest.prototype.send.call(this,e)}))}}),window.fetch=(...e)=&gt;{const r=e[0];let a=e[1];const{url:s,method:c}=function(e,t){let o,n="GET";return"string"==typeof e?(o=e,n=t?.method?.toUpperCase()||"GET"):"string"==typeof e?.search?(o=e.toString(),n=t?.method?.toUpperCase()||"GET"):(o=e.url||"",n=e?.method?.toUpperCase()||"GET"),{method:n,url:o}}(r,a),d=function(e,t){return new Promise((o=&gt;{if("string"==typeof e||"string"==typeof e?.search){const e=t&amp;&amp;t.body||null;o(e)}else try{e.clone().text().then((e=&gt;{o(e)})).catch((e=&gt;{o(null)}))}catch(e){o(null)}}))}(r,a);let p=!1;try{if("string"==typeof a?.headers?.amicabletbecof)switch(p=!0,a?.headers?.amicabletbecof){case"no-init":a=void 0;break;case"no-headers":a.headers=void 0;break;default:delete a.headers.amicabletbecof}}catch(e){0}return p||"OFF"===t?i(r,a).then((async e=&gt;{if("OFF"===o)return e;try{const t=await d;let i;try{i=t.replace(/\s/gi,"")}catch(e){i=t}const r=e.clone(),a=await r.text();let l=[];try{for(const e of r?.headers?.entries()){const t=e[0],o=e[1];l.push({active:!0,header:t,value:o})}}catch(e){l=[]}const p={type:"STASH_REQUESTS",payload:[[{method:c&amp;&amp;c.toUpperCase()||"GET",requestURL:s,responsePayload:a,requestPayload:i,responseHeaders:l,status:e.status,timestamp:Date.now()}]]};"ON"===o?window.postMessage(p,"*"):n.push(p.payload[0][0])}catch(e){}return e})):((...e)=&gt;new Promise((t=&gt;{l.subscribe((()=&gt;{t(window.fetch(...e))}))})))(...e)},l.subscribe((()=&gt;{try{window.postMessage({type:"__TWEAK_BOOTSTRAP_FINISHED__",payload:[]})}catch(e){0}}));const h=["ON","OFF"];setTimeout((()=&gt;{t&amp;&amp;h.includes(t)||(t="OFF",l.next())}),5e3),window.__onttis=e=&gt;{e&amp;&amp;h.includes(e)&amp;&amp;(t&amp;&amp;h.includes(t)?t=e:(t=e,l.next()))},window.__onttss__=(e,t)=&gt;{if(e&amp;&amp;h.includes(e)){if("OFF"===e&amp;&amp;"user"===t&amp;&amp;n.length)n=[];else if("ON"===e&amp;&amp;"system"===t&amp;&amp;n.length)try{window.postMessage({type:"STASH_REQUESTS",payload:[n]})}catch(e){0}n=[],o=e}},window.__textm__="c2"})();</script><script xmlns="" id="__tweak_browser_extension_intercept_script__" async="false" defer="false" src="moz-extension://e67f38a1-974f-4605-b7ca-a08e6851e987/intercept.bundle.js"/><defs><style>.cls-1{fill:none;}.cls-2{clip-path:url(#clip-path);}.cls-3{clip-path:url(#clip-path-2);}.cls-4{fill:url(#radial-gradient);}</style><clipPath id="clip-path"><rect class="cls-1" width="1200" height="1200"/></clipPath><clipPath id="clip-path-2"><rect class="cls-1" x="3.44" y="0.21" width="1196.56" height="1202.88"/></clipPath><radialGradient id="radial-gradient" cx="1.47" cy="294.32" r="1.47" gradientTransform="matrix(406.88, 0, 0, -408.93, 3.49, 120957.11)" gradientUnits="userSpaceOnUse"><stop offset="0" stop-color="#fff"/><stop offset="0.28" stop-color="#fff"/><stop offset="0.52" stop-color="#00adef"/><stop offset="0.74" stop-color="#00adef"/><stop offset="1" stop-color="#2c3364"/></radialGradient></defs><g id="Graphic_Elements" data-name="Graphic Elements"><g id="g1864"><g id="g1866"><g class="cls-2"><g id="g1868"><g id="g1874"><g id="g1910"><g class="cls-3"><g id="g1908"><g id="g1906"><g id="g1904"><g id="g1902"><g id="g1900"><path id="path1898" class="cls-4" d="M3.56,60.25q36.57,59.27,70,113.5,33.33-24.57,66.59-49.15Q108.85,68.82,74.76,8C51.05,25.39,27.31,42.74,3.56,60.25M259,62.84Q285,117.55,308.91,168q30.75-22.85,61.48-45.58-22-51.79-46-107.83Q291.69,38.64,259,62.84M227.75,254.63q25.17,45.56,48.43,87.79,28.8-21.51,57.58-42.87-21.67-43.4-45-90.17-30.45,22.62-61,45.25m141.93,41.28,38,80.08c17.93-13.43,35.88-26.75,53.78-40.17q-16.92-39.65-35.07-82.17-28.34,21.14-56.73,42.26M343.8.21,337.44,4.9Q361,61.32,382.67,113.27C403.12,98.08,423.57,83,444,67.82L418.81.21ZM3.44,421.07q31.69,41,61.06,79c19.36-14.48,38.74-28.8,58.06-43.24Q94.92,417.58,65,375.4,34.25,398.29,3.44,421.07M437.75,245.21q17.83,42.77,34.47,82.58C490.13,314.46,508,301,525.84,287.71q-15.19-40.86-31.52-84.66-28.29,21-56.57,42.16M434.93.21q10.88,29.9,21.28,58.53,30.6-22.6,61.12-45.31Q515.21,6.86,513.08.21Zm28.83,79.3q18.28,50.34,35.26,97,28.56-21.27,57.05-42.48-15.36-47.82-31.91-99.34Q494,57,463.76,79.51m41.86,115.13q16,44,30.93,85.07,26.75-20,53.48-40-13.49-42-28-87.14-28.17,21.06-56.42,42M326,454.46q19.69,35.09,38.06,67.92,25.47-19,50.84-38.12-17.12-33.75-35.41-69.8c-17.84,13.28-35.63,26.67-53.49,40m127.9,18.71q15.47,32.61,30,63.2,23.92-18,47.84-36Q518.3,469,504,435.54q-25.09,18.76-50.18,37.63m35.69,75.14q13.88,29.15,26.89,56.62,22.67-17.07,45.31-34.14-12.06-28.2-24.8-58.12-23.69,17.8-47.4,35.64M477.73,341l30.56,73.23q25.27-19,50.54-37.88-13.51-36.31-28-75.09Q504.33,321.14,477.73,341M145,704.8q23,27.26,44.49,52.86,24.22-18.23,48.41-36.39c-13.56-17.64-27.65-35.77-42.09-54.58Q170.43,685.78,145,704.8M546.41,505.55Q559,535.63,570.79,564C585.86,552.58,601,541.28,616,529.89q-10.82-29.07-22.3-59.9c-15.74,11.86-31.54,23.66-47.29,35.56m-321.8,24.68q22.24,33.25,43.08,64.34,25.53-19.12,51-38.26-19.56-32-40.42-66.25-26.82,20.1-53.7,40.17M574.1,383q12.6,34.67,24.42,67.19,23.85-17.87,47.62-35.79L624,345.55q-25,18.7-49.93,37.44m29,79.89q11.28,31,21.89,60.21,22.56-17,45.1-34-9.61-29.93-19.81-61.68-23.57,17.74-47.18,35.47M434.5,679.11q14.34,25,27.91,48.53Q484,711.26,505.65,695q-12.64-24.24-26-49.9-22.53,17-45.13,34m115.17-4.17q11.33,23.77,22,46.31,20.52-15.56,41-31-9.86-23.16-20.3-47.56Q571,658.76,549.67,674.94M450.22,825.21q12.7,19.85,24.81,38.65,19.68-14.94,39.35-29.83c-7.52-12.95-15.31-26.18-23.25-39.79q-20.43,15.5-40.91,31m-129.3-60.48q16.79,23.22,32.71,45.08,21.75-16.37,43.42-32.81-15-22.57-30.78-46.45C351.19,742,336,753.3,320.92,764.73m280-128.53q10.26,24.54,19.95,47.8,20.49-15.5,40.94-31-8.87-23.88-18.25-49Q622.24,620,600.94,636.2m23.75,56.91q9.33,22.29,18.16,43.5c13-9.89,26.09-19.72,39.07-29.63q-8.1-21.74-16.61-44.62Q645,677.69,624.69,693.11m3.87-160.3q10.17,28,19.78,54.39,21.48-16.17,42.91-32.4-8.71-27.09-17.92-55.74c-14.89,11.28-29.85,22.47-44.77,33.75m23.54,64.74L670,646.83q20.43-15.5,40.86-30.93-7.89-24.58-16.22-50.5c-14.19,10.69-28.35,21.45-42.55,32.15M307.81,933c10.4,11.82,20.45,23.41,30.28,34.67,13.17-10,26.42-20,39.56-30q-14-17.44-28.69-35.82Q328.32,917.33,307.81,933m291.32-154q9.39,19.77,18.32,38.6c12.5-9.49,25-19,37.49-28.47q-8.24-19.34-16.91-39.63-19.42,14.77-38.9,29.5m-65.4,112.26c6.74,11.34,13.4,22.35,19.86,33.16,12-9.14,24-18.32,36-27.41Q580.56,880.4,571.07,863q-18.65,14.2-37.34,28.37M641,867.24q7.93,16.63,15.47,32.58c11.47-8.79,23-17.49,34.47-26.26q-7-16.35-14.28-33.46Q658.8,853.62,641,867.24m4.8-123.57q8.51,20.42,16.63,39.84,18.71-14.22,37.41-28.42-7.46-19.92-15.22-40.86Q665.26,729,645.8,743.67m19.81,47.47q7.82,18.68,15.25,36.53c12-9.06,23.89-18.2,35.85-27.27q-6.83-18.3-14-37.49c-12.41,9.36-24.75,18.82-37.14,28.23m18.17,43.54q7.17,17.21,14,33.63c11.46-8.76,23-17.46,34.41-26.21q-6.29-16.86-12.85-34.51c-11.83,9.06-23.75,18-35.6,27.09m8.6-126.33q7.67,21,14.93,41.07c12.51-9.39,24.91-18.91,37.34-28.37q-6.6-20.53-13.52-42.1-19.38,14.68-38.75,29.4M427,976.76q12,15.47,23.54,30.17,18-13.74,36.08-27.45c-7.21-10.15-14.66-20.49-22.23-31.13Q445.7,962.59,427,976.76M726.49,802.18c4.29,11.82,8.52,23.37,12.61,34.68q17.19-13.07,34.35-26.17-5.58-17.38-11.42-35.55-17.71,13.58-35.54,27M659,905.14l14.32,30.15L706.48,910q-6.48-15.15-13.21-31-17.14,13-34.27,26.11M525.2,1056.21c6.14,8.31,12.1,16.46,18,24.46q16.08-12.27,32.12-24.54-8.29-12.32-16.94-25.22-16.54,12.66-33.15,25.3M691.89,974.4c4.21,8.82,8.29,17.47,12.32,25.94q15.4-11.76,30.78-23.54-5.57-13-11.37-26.64-15.89,12.08-31.73,24.24m8.23-100.59q6.63,15.9,13,31.13,16.57-12.62,33.11-25.26-5.81-15.63-11.89-31.94c-11.41,8.67-22.76,17.44-34.21,26.07M602.5,997.23c5.29,8.93,10.45,17.7,15.55,26.24,10.69-8.13,21.34-16.32,32-24.45q-7.11-13.23-14.52-27-16.56,12.56-33,25.22M730,945.32q5.71,13.66,11.18,26.78c10.26-7.83,20.45-15.72,30.74-23.5q-5-13.49-10.24-27.49Q745.79,933.17,730,945.32m11.2-102.79q6,16.4,11.67,32.1,16.53-12.63,33.06-25.21-5.16-16.11-10.57-32.92-17.07,13-34.16,26m13.92,38.27q5.5,15.19,10.81,29.75,15.92-12.18,31.83-24.31-4.8-14.94-9.8-30.5c-11,8.32-21.87,16.73-32.84,25.06M768,916.28q5.13,14.09,10,27.63,15.33-11.77,30.68-23.47-4.44-13.87-9.09-28.32-15.83,12-31.64,24.16m-168.81,181q7.41,10.88,14.47,21.39c9.87-7.55,19.76-15.06,29.59-22.66q-6.68-10.8-13.59-22c-10.12,7.81-20.36,15.48-30.47,23.31m120.78-63.81c3.64,7.68,7.25,15.19,10.74,22.59q14.4-11,28.74-22-4.84-11.4-9.91-23.21-14.78,11.34-29.57,22.64m-33,62q5.78,10.29,11.29,20.22c9.25-7.17,18.57-14.25,27.86-21.37-3.43-6.82-7-13.73-10.51-20.8-9.49,7.38-19.06,14.66-28.64,22m56-119q5.32,12.74,10.43,25c9.9-7.59,19.77-15.2,29.69-22.74q-4.65-12.59-9.55-25.64c-10.23,7.73-20.37,15.59-30.57,23.39m12.44,29.82q5,11.89,9.74,23.33,14.42-10.94,28.7-22-4.38-11.76-8.91-23.95c-9.84,7.53-19.65,15.11-29.53,22.61M767,1034.16q4.61,11.13,9.12,21.84c9.23-7.14,18.55-14.16,27.77-21.31-2.74-7.33-5.5-14.8-8.35-22.4q-14.26,10.92-28.54,21.87m12.62-85.72q4.76,13.15,9.38,25.77,14.85-11.33,29.65-22.7c-2.8-8.62-5.6-17.44-8.49-26.42q-15.27,11.65-30.54,23.35m11.19,30.75q4.47,12.27,8.75,24.07c9.53-7.36,19.11-14.64,28.66-22q-3.87-12.12-7.93-24.68-14.75,11.28-29.48,22.57M578.52,1178.65c4.84,6.11,9.6,12.08,14.22,18,9.31-7.18,18.7-14.25,28-21.46-4.42-6.07-8.86-12.3-13.44-18.61q-14.37,11-28.76,22.05m165.93-93.58q4.78,10.11,9.42,19.86,13.5-10.34,27-20.7c-2.86-6.67-5.74-13.49-8.7-20.39q-13.83,10.62-27.68,21.23m-61.77,79.76q5.43,8.81,10.73,17.27c8.72-6.74,17.49-13.41,26.21-20.14-3.3-5.81-6.62-11.76-10-17.78q-13.47,10.29-26.9,20.65m83.6-33.78c2.83,5.94,5.64,11.79,8.34,17.56,8.48-6.47,16.88-13,25.36-19.5q-3.79-8.86-7.7-18c-8.65,6.68-17.33,13.31-26,20m11.38-71.46q4.33,10.44,8.56,20.51c9-6.88,18-13.7,26.92-20.66-2.56-6.9-5.19-13.91-7.84-21.06-9.23,7-18.41,14.16-27.64,21.21m10.22,24.48q4.08,9.79,8,19.27,13.05-10,26.1-20c-2.43-6.48-4.84-13.08-7.36-19.78-8.9,6.88-17.8,13.77-26.78,20.56m9.6,23c2.55,6.15,5.1,12.18,7.57,18.13q12.71-9.68,25.33-19.47-3.42-9.15-6.93-18.61-13,10-26,19.95m13.35-72.93q3.92,10.75,7.69,21.15c8.94-6.9,17.93-13.75,26.88-20.63q-3.43-10.65-7-21.7-13.82,10.57-27.61,21.18m9.18,25.26c2.43,6.74,4.89,13.35,7.22,19.87,8.65-6.74,17.41-13.32,26.07-20q-3.24-10-6.55-20.38c-8.92,6.83-17.8,13.71-26.74,20.54m8.63,23.73c2.28,6.35,4.53,12.58,6.8,18.71,8.46-6.45,16.85-13,25.3-19.45q-3-9.45-6.17-19.19-13,9.93-25.93,19.93m-93.06,99.45c3,5.38,6,10.65,8.84,15.86,8.22-6.35,16.49-12.64,24.69-19-2.73-5.32-5.45-10.78-8.24-16.31q-12.63,9.75-25.29,19.45m49.82-11.27q3.79,7.93,7.45,15.66c8-6.18,16-12.28,23.95-18.44q-3.4-7.92-6.86-16.1c-8.16,6.32-16.37,12.57-24.54,18.88m20.9-43.11q3.63,8.7,7.15,17.13c8.21-6.32,16.45-12.59,24.62-18.94-2.13-5.77-4.34-11.63-6.54-17.58-8.42,6.45-16.79,13-25.23,19.39m8.54,20.45q3.45,8.22,6.75,16.19c8-6.13,15.95-12.31,23.94-18.42-2-5.46-4.08-11-6.19-16.62q-12.23,9.45-24.5,18.85m8.07,19.33c2.16,5.18,4.31,10.27,6.39,15.31,7.71-6,15.51-12,23.27-17.93-1.91-5.16-3.87-10.4-5.84-15.72q-11.9,9.19-23.82,18.34m13.65-63c2.18,6,4.34,11.87,6.43,17.67q12.27-9.49,24.59-18.92-2.85-8.93-5.82-18.12-12.57,9.72-25.2,19.37m7.68,21.11c2.07,5.64,4.08,11.21,6.07,16.69q12-9.18,23.9-18.41-2.72-8.41-5.5-17.11-12.26,9.38-24.47,18.83m-60.61,77-1.76-3.49-4.56,3.49Zm47.92,0-5.84-13.67q-8.88,6.82-17.77,13.67Zm-1.2-17.25c2,4.91,4,9.76,6.07,14.52,7.59-5.78,15.08-11.7,22.67-17.48q-2.73-7.35-5.54-14.91c-7.72,6-15.46,11.91-23.2,17.87m31,17.25,4.1-3.17c-1.71-4.65-3.49-9.36-5.27-14.15q-11.22,8.67-22.45,17.32Zm5.28,0-.15-.41-.53.41Zm-8.44-38.7c1.87,5.07,3.65,10.08,5.45,15q11.32-8.73,22.65-17.46c-1.6-5.06-3.25-10.17-4.93-15.37q-11.55,9-23.17,17.84m6.51,17.91c1.74,4.81,3.46,9.56,5.16,14.21,7.37-5.66,14.71-11.36,22.08-17-1.52-4.79-3.11-9.65-4.68-14.58q-11.29,8.67-22.56,17.39m23.64,20.79,9-6.9c-1.46-4.56-3-9.16-4.45-13.86-7.3,5.68-14.67,11.28-22,17,.46,1.27.92,2.54,1.39,3.8Zm11.17,0-1.47-4.6c-2,1.52-4,3.06-6,4.6ZM570.6.21q-18.09,13.43-36.19,26.87,16.26,51.77,31.34,99.74,28.47-21.22,56.89-42.35Q611.43,43.64,599.52.21Zm1,145.26q14.22,45.3,27.49,87.49c17.77-13.33,35.59-26.56,53.35-39.85q-11.87-43.21-24.58-89.56-28.1,21-56.26,41.92M613.78.21q10.4,39,20.22,75.8,28.38-21.15,56.73-42.24Q686.94,17.19,683,.21Zm82.7,0q2.82,12.68,5.58,25.13L735.82.21ZM706.43,45q10.64,47.84,20.51,92.41Q753.47,117.57,780,97.8q-8.5-45.58-17.63-94.45Q734.44,24.2,706.43,45M603.51,247q12.62,40.1,24.39,77.6c16.79-12.54,33.51-25.19,50.29-37.69q-10.58-38.42-21.8-79.45-26.45,19.7-52.88,39.54m29,92.24q11.21,35.64,21.72,69.12l47.51-35.71q-9.42-34.29-19.43-70.76-24.88,18.63-49.8,37.35m25.83,82.18q10,31.9,19.47,61.94,22.5-17,45-33.92-8.44-30.78-17.4-63.41-23.52,17.68-47.07,35.39M667,199.53q11,41.24,21.29,79.81c16.75-12.52,33.44-25.11,50.16-37.61q-9-39.48-18.71-81.64Q693.31,179.77,667,199.53M714.8,378.91q8.75,32.82,17,63.72,22.5-16.89,44.92-33.85-7.28-31.63-15-65.18-23.46,17.65-47,35.31m37.06-129.23q8.37,37.68,16.21,73.05,23.63-17.82,47.28-35.54-6.74-36.19-13.92-74.68-24.75,18.6-49.57,37.17m19.27,86.87q7.5,33.7,14.54,65.47,22.43-16.89,44.81-33.76-6.06-32.5-12.49-66.95-23.43,17.58-46.86,35.24M680.94,493.33q9,28.79,17.59,56,21.39-16.21,42.81-32.34-7.65-27.84-15.73-57.31c-14.87,11.24-29.78,22.42-44.67,33.68m39.91,127q7.44,23.67,14.5,46.15c13-9.82,25.93-19.71,38.93-29.51q-6.35-23-13-47.27Q741.07,605,720.85,620.31m13.69-167.39q7.89,29.61,15.36,57.59,21.36-16.15,42.72-32.28-6.58-28.64-13.5-58.91c-14.87,11.16-29.7,22.41-44.58,33.6m18.28,68.53q7.17,26.77,13.91,52.17,20.37-15.39,40.7-30.8-5.94-26-12.24-53.38-21.18,16-42.37,32m16.56,62.11q6.5,24.36,12.67,47.49c13-9.77,25.91-19.65,38.86-29.47q-5.45-23.67-11.15-48.59-20.16,15.3-40.38,30.57M803.66,483q6.11,27.54,11.9,53.62,20.33-15.36,40.61-30.73-5-26.7-10.22-54.84Q824.79,467,803.66,483m14.17,63.85q5.55,25,10.83,48.81c12.9-9.86,25.87-19.59,38.78-29.4q-4.53-24.33-9.32-49.92Q838,531.59,817.83,546.89M737.71,674q6.81,21.66,13.29,42.28,18.64-14.16,37.27-28.31-5.81-21.12-11.89-43.3-19.3,14.68-38.67,29.33m15.83,50.36q6.26,19.84,12.19,38.78c11.93-9,23.8-18.14,35.72-27.17-3.58-12.93-7.18-26.17-10.91-39.72q-18.48,14.07-37,28.11m14.52,46.22q5.76,18.26,11.22,35.71,17.16-13.07,34.29-26.12-4.91-17.89-10-36.58-17.71,13.5-35.47,27m29.87-79.95q5.48,20.43,10.65,39.91c11.92-9,23.77-18.11,35.65-27.13q-4.59-19.93-9.36-40.84-18.42,14.07-36.94,28.06m12.69,47.57q5,18.8,9.8,36.74,17.12-13.06,34.24-26.08-4.2-18.39-8.62-37.61-17.76,13.41-35.42,26.95m19.81-134.52q5.07,22.9,9.93,44.72,18.58-14.1,37.13-28.21-4.15-22.3-8.54-45.73Q849.69,589,830.43,603.64m11.83,53.28q4.63,21,9.1,41,17.82-13.5,35.6-27.07c-2.54-13.67-5.19-27.66-7.83-42-12.28,9.35-24.59,18.65-36.87,28m10.85,48.91q4.29,19.32,8.39,37.78,17.1-13,34.17-26-3.54-18.9-7.21-38.65c-11.8,8.94-23.54,18-35.35,26.9m-72,106.25q5.28,16.89,10.38,33c11-8.36,22-16.84,33-25.18q-4.54-16.56-9.29-33.85c-11.37,8.64-22.69,17.36-34.09,26m12.38,39.4c3.27,10.43,6.45,20.64,9.62,30.62,10.65-8,21.16-16.22,31.79-24.26q-4.21-15.36-8.62-31.37c-10.94,8.32-21.84,16.69-32.79,25M822,780.91q4.62,17.39,9.07,34c11-8.38,22-16.71,32.95-25.14-2.58-11.36-5.27-23-8-34.82q-17,12.94-34,25.94m10.81,40.56q4.27,16.1,8.41,31.51,15.9-12.08,31.73-24.23-3.62-15.79-7.4-32.26c-10.88,8.35-21.77,16.71-32.74,25m10,37.59c2.68,10,5.25,19.71,7.81,29.28,10.23-7.77,20.41-15.6,30.6-23.4q-3.36-14.69-6.88-30l-31.53,24.09m29.26-67.57q3.68,16.54,7.19,32.42c10.56-8.08,21.08-16.19,31.68-24.2q-3-16.25-6.19-33.16c-10.9,8.29-21.76,16.66-32.68,24.94m8.57,38.66q3.42,15.36,6.69,30.11,15.3-11.65,30.55-23.35c-1.86-10.07-3.81-20.33-5.75-30.81q-15.72,12-31.49,24m-65.32,91q4.27,13.53,8.35,26.54c9.84-7.59,19.74-15.11,29.6-22.66q-3.65-13.34-7.46-27.2-15.24,11.66-30.49,23.32m19.25,61.24q3.72,11.82,7.29,23.19c9.26-7,18.47-14.16,27.69-21.24q-3.21-11.67-6.52-23.77c-9.44,7.33-19,14.55-28.46,21.82M852,893.14c2.49,9.29,4.9,18.4,7.29,27.32,9.87-7.52,19.7-15.1,29.57-22.63q-3.14-13.71-6.42-28-15.18,11.7-30.44,23.29m8.7,32.6q3.45,13,6.8,25.52c9.52-7.32,19.08-14.58,28.58-21.9-1.94-8.55-4-17.24-6-26.12-9.82,7.47-19.59,15-29.4,22.5m8.12,30.45q3.26,12.15,6.37,23.88c9.24-7.05,18.43-14.17,27.66-21.22q-2.74-12-5.61-24.44Q883,945.29,868.78,956.19m19.71-91c2.1,9.55,4.2,18.92,6.23,28.1q14.76-11.32,29.53-22.6-2.62-14.1-5.37-28.75-15.21,11.58-30.39,23.25m7.44,33.53c2,8.91,3.91,17.65,5.82,26.24q14.32-10.87,28.54-21.87c-1.65-8.78-3.29-17.73-5-26.85q-14.67,11.24-29.36,22.48m7,31.31c1.84,8.35,3.68,16.52,5.46,24.57Q922.14,944,936,933.44c-1.51-8.24-3.13-16.6-4.69-25.13q-14.16,10.91-28.38,21.74m-59.76,79.32q3.5,11.1,6.85,21.79c9-6.87,17.93-13.7,26.85-20.61q-3-11-6.13-22.32-13.79,10.56-27.57,21.14m8.18,26q3.27,10.41,6.43,20.47,13-10,26-20-2.84-10.3-5.76-21c-8.92,6.81-17.75,13.72-26.7,20.5M876.19,984c2,7.62,4,15.08,6,22.43q13.43-10.29,26.82-20.58c-1.74-7.52-3.48-15.18-5.27-23-9.19,7-18.35,14.08-27.54,21.12m13.86,52c1.81,6.72,3.56,13.33,5.3,19.84,8.41-6.48,16.84-12.92,25.24-19.41q-2.3-10-4.67-20.31c-8.59,6.67-17.27,13.22-25.87,19.88m25.3-49.74c1.64,7.34,3.21,14.58,4.8,21.68,8.69-6.62,17.32-13.3,26-19.95q-2-10.91-4.13-22.19Q928.67,976,915.35,986.21m5.74,25.89q2.32,10.36,4.53,20.41,12.6-9.72,25.2-19.38c-1.25-6.85-2.6-13.8-3.89-20.88-8.62,6.61-17.2,13.25-25.84,19.85M866,1082.28q2.93,9.24,5.73,18.2c8.2-6.28,16.34-12.63,24.55-18.9q-2.52-9.18-5.12-18.64-12.57,9.66-25.16,19.34m6.83,21.73c1.85,5.82,3.64,11.55,5.41,17.2q12-9.17,23.88-18.38-2.4-8.67-4.84-17.62-12.24,9.38-24.45,18.8m23.36-44.94c1.69,6.35,3.37,12.59,5,18.74q12.25-9.46,24.53-18.87c-1.42-6.31-2.91-12.7-4.4-19.2q-12.58,9.63-25.13,19.33m6,22.38q2.38,9,4.72,17.7c8-6.09,15.89-12.26,23.85-18.36-1.37-6-2.73-12-4.16-18.12-8.13,6.25-16.31,12.47-24.41,18.78m5.64,21.15q2.26,8.51,4.47,16.75,11.58-9,23.2-17.88c-1.32-5.62-2.61-11.35-3.93-17.15q-11.84,9.18-23.74,18.28m18.54-66.72q2.19,9.8,4.28,19.28,12.3-9.36,24.5-18.85c-1.19-6.47-2.44-13-3.68-19.73-8.36,6.44-16.77,12.82-25.1,19.3m5.12,23c1.35,6.16,2.71,12.24,4,18.21,8-6.08,15.87-12.23,23.81-18.34q-1.71-9.16-3.47-18.63c-8.14,6.23-16.25,12.51-24.38,18.76m4.82,21.75c1.28,5.84,2.58,11.59,3.83,17.24,7.73-6,15.41-12,23.17-17.85q-1.63-8.68-3.29-17.64c-7.93,6-15.8,12.17-23.71,18.25m-51,62.85q2.47,7.83,4.85,15.44,11.34-8.7,22.63-17.44-2.14-7.8-4.34-15.82c-7.74,5.91-15.42,11.88-23.14,17.82m5.79,18.44,4.6,14.65c7.36-5.67,14.67-11.39,22.05-17q-2-7.39-4.12-15-11.29,8.64-22.53,17.37m5.5,17.5c1.47,4.72,3,9.34,4.38,13.92,7.12-5.59,14.33-11,21.49-16.59q-1.92-7-3.91-14.26-10.95,8.49-22,16.93M913,1122.12c1.44,5.38,2.84,10.68,4.24,15.9,7.54-5.8,15.05-11.65,22.6-17.43-1.24-5.34-2.46-10.77-3.73-16.27-7.72,5.9-15.36,11.92-23.11,17.8m9.88,37c1.27,4.84,2.57,9.61,3.82,14.32,7.11-5.57,14.3-11.07,21.47-16.56q-1.66-7.25-3.36-14.68-11,8.43-21.93,16.92m17.85-58.38c1.23,5.52,2.48,11,3.63,16.35,7.49-5.86,15.07-11.6,22.59-17.41q-1.54-8.23-3.14-16.74c-7.67,6-15.39,11.84-23.08,17.8m4.34,19.53q1.73,7.88,3.45,15.52c7.29-5.7,14.61-11.38,22-17q-1.47-7.83-3-15.88-11.26,8.63-22.48,17.33m4.11,18.55c1.1,5,2.21,9.89,3.28,14.74,7.18-5.47,14.32-11,21.45-16.55q-1.38-7.46-2.82-15.09c-7.33,5.59-14.57,11.3-21.91,16.9m-35.86,64.25c4.49-3.46,9-6.89,13.46-10.36-1.22-4.47-2.48-9-3.73-13.58-7.12,5.52-14.31,11-21.42,16.52l2.33,7.42Zm16.31,0c-.69-2.55-1.39-5.13-2.12-7.71q-5,3.84-10,7.71Zm-2.3-27.25c1.22,4.61,2.43,9.17,3.64,13.65q10.49-8.1,21-16.18c-1-4.6-2.13-9.26-3.21-14-7.14,5.48-14.24,11-21.39,16.51m10.52,27.25c5.94-4.55,11.89-9.09,17.75-13.75-1-4.37-2-8.82-3-13.3-7,5.29-13.85,10.81-20.87,16.11q1.46,5.53,2.91,10.94Zm20.91,0c-.84-3.67-1.66-7.39-2.55-11.14q-7.17,5.61-14.38,11.14ZM953,1156c1,4.75,2.09,9.43,3.12,14,7-5.43,14-10.73,20.94-16.17-.85-4.73-1.81-9.5-2.69-14.37-7.12,5.5-14.27,11-21.37,16.5m3.73,16.78c1,4.53,2,9,3,13.37q10.21-7.9,20.44-15.78l-2.55-13.69c-6.94,5.38-13.85,10.79-20.85,16.1m3.55,16c.93,4.32,1.9,8.56,2.82,12.76,6.65-5.17,13.31-10.29,20-15.42q-1.25-6.45-2.44-13.06-10.21,7.8-20.35,15.72m22.55,14.29,3-2.31q-1.14-6.16-2.34-12.49c-6.39,4.9-12.68,9.94-19.1,14.8ZM772.59.21q8.5,47,16.42,90.85Q815.48,71.24,842,51.51q-3.72-25.17-7.56-51.3Zm73.83,0q3.11,22,6.1,43.41Q879,23.91,905.32,4.15c-.14-1.31-.29-2.62-.43-3.94Zm-54.66,106q7.85,43.45,15.2,84.12,25-18.72,49.93-37.44Q850.77,111.36,844.23,67,818,86.59,791.76,106.23m18.07,100q7,38.64,13.55,75c15.72-11.85,31.49-23.61,47.18-35.47q-5.46-37.11-11.28-76.56-24.75,18.47-49.45,37.08m16.11,89.12q6.27,34.59,12.15,67.2,22.39-16.83,44.72-33.7-4.92-33.33-10.12-68.66-23.38,17.52-46.75,35.16M854.72,59.16q6.3,44.58,12.14,86.29,24.9-18.7,49.81-37.34Q912,65.51,907.05,20q-26.13,19.59-52.33,39.14m14.43,102.56q5.61,39.65,10.84,76.88c15.67-11.83,31.39-23.57,47.06-35.37q-4.15-38-8.57-78.5-24.66,18.45-49.33,37M882,253.15q5,35.49,9.71,69,22.34-16.82,44.61-33.64-3.74-34.15-7.68-70.39Q905.38,235.62,882,253.15M933.56.21l-16.06,12q4.71,45.69,9.11,88.44Q951.46,82,976.29,63.43,974,32.56,971.67.21Zm-5.23,117.13q4.18,40.65,8.12,78.83,23.44-17.71,46.95-35.3-2.88-39-5.87-80.43l-49.2,36.9M938,211.07q3.75,36.39,7.28,70.68,22.29-16.75,44.52-33.54-2.55-35-5.27-72.13-23.25,17.49-46.53,35M840.05,373.38q5.64,31.23,11,60.74Q872.27,418,893.58,402q-4.46-30.18-9.14-62.07-22.22,16.69-44.39,33.47m13.07,72.29q5.11,28.24,10,55c13.49-10.27,27-20.44,40.54-30.69q-4-27.37-8.29-56.24-21.06,16-42.2,31.89M865,511.2q4.65,25.7,9,50.1c12.89-9.81,25.82-19.55,38.71-29.35q-3.66-24.94-7.54-51.2Q885.08,496,865,511.2m28.34-178q4.53,32,8.77,62.33,21.23-16.08,42.46-32.07-3.39-30.94-6.95-63.65-22.11,16.71-44.28,33.39m10.44,74.18q4.08,29,8,56.48,20.2-15.34,40.45-30.61-3-28.08-6.29-57.69-21.07,15.87-42.12,31.82m9.48,67.25q3.69,26.38,7.23,51.43c12.91-9.73,25.76-19.54,38.63-29.29q-2.77-25.6-5.73-52.53c-13.34,10.18-26.75,20.27-40.13,30.39m33.21-181.49Q949.82,326,953,357.08q21.22-16,42.37-32-2.31-31.71-4.76-65.22-22.1,16.63-44.19,33.31m7.84,76.07q3.08,29.73,6,57.92c13.49-10.15,26.91-20.38,40.37-30.55q-2.15-28.78-4.32-59.13c-14,10.63-28,21.16-42,31.76m7.1,69q2.79,27,5.43,52.75,19.29-14.62,38.55-29.23-1.92-26.24-3.93-53.84c-13.4,10-26.68,20.22-40,30.32M875.5,569.45q4.25,23.52,8.29,45.92,18.59-14.05,37.08-28.17-3.39-22.89-6.91-46.92c-12.82,9.71-25.61,19.48-38.46,29.17m9.89,54.7q3.87,21.55,7.61,42.13c11.87-9,23.68-18,35.54-27q-3.12-21-6.35-43-18.39,14-36.8,28m9.07,50.21c2.4,13.22,4.71,26.16,7,38.79q17-13.06,34.13-26-2.85-19.39-5.85-39.65-17.62,13.43-35.29,26.85m27.18-139.91c2.27,16.1,4.51,31.8,6.63,47.13,12.39-9.33,24.67-18.76,37-28.11Q962.75,530,960,505.34q-19.18,14.55-38.39,29.11m7.9,56.15q3.13,22.13,6.1,43.24c11.83-9,23.68-18,35.47-27q-2.34-21.57-4.82-44.16-18.36,13.95-36.75,27.91m7.27,51.54q2.88,20.36,5.6,39.83,17.05-13,34.06-26-2.15-19.9-4.44-40.69-17.58,13.44-35.22,26.81m30.88-142.62q2.55,24.76,5,48.33,18.47-14,36.93-28.05-1.74-24.07-3.6-49.33-19.12,14.53-38.31,29m5.94,57.59q2.36,22.7,4.56,44.35,17.76-13.41,35.41-26.93-1.64-22.12-3.31-45.28Q992,543.2,973.63,557.11M979.07,610q2.17,20.88,4.21,40.85c11.38-8.58,22.67-17.28,34-25.9-1-13.59-2-27.49-3-41.71-11.69,8.95-23.48,17.77-35.16,26.76M902.62,719.5q3.32,18.35,6.49,35.91,16.44-12.52,32.84-25.06c-1.78-12-3.55-24.21-5.4-36.71q-16.93,13-33.93,25.86m7.74,42.82q3.09,17,6,33.28,15.79-12.14,31.63-24.16-2.44-16.66-5-34-16.34,12.44-32.64,24.9m7.18,39.7q2.82,15.76,5.59,30.92,15.24-11.7,30.5-23.33Q951.35,794.12,949,778c-10.51,8-20.93,16-31.44,24m25.79-113.54c1.75,12.55,3.51,24.84,5.19,36.87q16.4-12.51,32.79-25l-4.11-37.67q-16.92,12.9-33.87,25.82m6.19,44q2.49,17.44,4.81,34.17,15.81-12.06,31.58-24.12-1.89-17.09-3.81-34.91c-10.85,8.28-21.69,16.61-32.58,24.86m5.74,40.76c1.54,10.79,3,21.38,4.46,31.75q15.25-11.64,30.47-23.29-1.76-15.9-3.54-32.44-15.71,12-31.39,24M984,657.51q1.95,19.32,3.89,37.83,16.38-12.5,32.74-25-1.38-18.9-2.83-38.63-16.9,12.87-33.8,25.77m4.64,45.1q1.85,17.89,3.61,35.06c10.53-8,21-16.07,31.53-24.08-.84-11.68-1.75-23.61-2.61-35.8l-32.53,24.82m4.31,41.81c1.15,11.08,2.24,21.93,3.35,32.58q15.21-11.64,30.41-23.25-1.18-16.31-2.43-33.27-15.68,12-31.33,23.94m-62.65,128q2.47,13.72,4.87,26.95,14.24-11,28.51-21.84-2-13.53-4.07-27.56-14.64,11.24-29.31,22.45m5.81,32.16c1.57,8.56,3,17,4.56,25.23,9.17-7.09,18.41-14.09,27.59-21.16q-1.86-12.66-3.8-25.79-14.14,10.89-28.35,21.72m24.38-94.45q2.13,15.11,4.18,29.63,14.72-11.26,29.43-22.53-1.58-14.87-3.3-30.28-15.13,11.61-30.31,23.18m5,35.36c1.35,9.39,2.62,18.62,3.9,27.68q14.24-10.91,28.46-21.81-1.54-13.87-3.09-28.28C985,830.6,975.2,838,965.44,845.52m4.65,33c1.23,8.79,2.47,17.42,3.65,25.9q13.78-10.55,27.55-21.12-1.44-13-2.9-26.48c-9.42,7.24-18.91,14.41-28.3,21.7m26.73-96.2c1.08,10.33,2.09,20.47,3.14,30.41q14.68-11.26,29.39-22.51-1.14-15.21-2.27-31c-10.06,7.74-20.19,15.4-30.26,23.14m3.74,36.28q1.49,14.46,2.93,28.4c9.49-7.24,18.94-14.53,28.41-21.78q-1.07-14.22-2.12-29-14.58,11.21-29.22,22.38m3.49,33.89q1.38,13.53,2.74,26.58,13.76-10.56,27.5-21.1c-.65-8.88-1.28-17.93-2-27.14l-28.26,21.66M941.4,934q2.18,12.06,4.28,23.7c8.93-6.83,17.8-13.72,26.75-20.53q-1.78-11.89-3.58-24.23Q955.14,923.48,941.4,934m5.11,28.29c1.36,7.55,2.72,15,4,22.27,8.63-6.67,17.33-13.24,25.94-19.92q-1.65-11.21-3.35-22.77Q959.79,952,946.51,962.28m4.8,26.59q2,10.65,3.8,21c8.39-6.45,16.8-12.87,25.17-19.36Q978.74,980,977.12,969q-12.93,9.87-25.81,19.83m23-80.15q1.74,12.38,3.43,24.33,13.32-10.29,26.7-20.5-1.34-12.21-2.71-24.87-13.71,10.52-27.42,21m4.1,29,3.21,22.87c8.67-6.6,17.26-13.28,25.9-19.89q-1.27-11.49-2.55-23.38-13.28,10.2-26.56,20.4m3.84,27.31c1,7.29,2.05,14.47,3,21.54q12.6-9.63,25.14-19.34c-.8-7.21-1.58-14.54-2.4-22-8.56,6.64-17.19,13.18-25.77,19.8m25-81.6c.86,8.47,1.74,16.79,2.57,25q13.35-10.23,26.67-20.47-.92-12.53-1.86-25.5-13.68,10.51-27.38,21m3.07,29.82q1.2,11.93,2.42,23.47c8.61-6.64,17.26-13.23,25.86-19.87-.57-7.86-1.17-15.85-1.75-24q-13.24,10.19-26.53,20.37m2.89,28q1.15,11.23,2.28,22.11,12.54-9.67,25.1-19.31-.82-11.1-1.65-22.57c-8.58,6.58-17.11,13.23-25.73,19.77m-57.47,72q1.8,10.07,3.58,19.81c8.19-6.24,16.31-12.56,24.48-18.83q-1.49-10-3-20.25c-8.38,6.38-16.72,12.83-25.07,19.27M960,1037c1.13,6.34,2.27,12.57,3.38,18.71,8-6.09,15.83-12.26,23.8-18.32-.92-6.28-1.89-12.66-2.83-19.13L960,1037m4,22.35c1.09,6,2.14,11.89,3.2,17.71q11.57-8.94,23.15-17.84-1.29-8.92-2.67-18.11c-7.85,6.13-15.8,12.13-23.68,18.24m21.77-69.14c.93,6.9,1.92,13.68,2.85,20.35q12.26-9.39,24.45-18.81c-.77-6.81-1.51-13.74-2.27-20.79q-12.52,9.62-25,19.25m3.41,24.3q1.38,9.75,2.71,19.21c7.87-6.16,15.86-12.17,23.76-18.29-.73-6.44-1.42-13-2.14-19.64-8.07,6.28-16.21,12.49-24.33,18.72m3.23,23c.89,6.15,1.73,12.21,2.56,18.19,7.7-6,15.43-11.87,23.13-17.82q-1-9.15-2-18.59c-7.91,6-15.77,12.14-23.66,18.22m23.39-70.36c.74,7.08,1.47,14,2.15,20.88,8.12-6.28,16.28-12.51,24.41-18.78q-.73-10.49-1.56-21.32c-8.37,6.36-16.64,12.84-25,19.22m2.57,24.94c.7,6.68,1.39,13.24,2,19.72,7.93-6.07,15.78-12.23,23.73-18.27-.45-6.61-1-13.32-1.47-20.14-8.13,6.18-16.19,12.45-24.29,18.69m2.43,23.56q.95,9.48,1.91,18.67,11.51-9,23.1-17.79c-.46-6.26-.9-12.62-1.39-19.07q-11.78,9.14-23.62,18.19M967.78,1080c1,5.68,2.05,11.28,3,16.8q11.25-8.74,22.56-17.39c-.85-5.64-1.66-11.37-2.53-17.18-7.7,5.9-15.41,11.79-23.06,17.77m3.63,20.07q1.46,8.09,2.88,15.93c7.36-5.6,14.66-11.28,22-16.94q-1.2-8-2.41-16.3-11.21,8.67-22.45,17.31m3.44,19c.92,5.12,1.85,10.16,2.74,15.15,7.1-5.58,14.27-11.06,21.43-16.54-.76-5.1-1.54-10.26-2.28-15.49-7.26,5.66-14.6,11.24-21.89,16.88m20.6-60.45q1.21,8.78,2.43,17.26,11.25-8.7,22.53-17.37-.93-8.68-1.93-17.64-11.47,8.91-23,17.75m2.9,20.62q1.17,8.31,2.31,16.39c7.32-5.66,14.61-11.33,22-17-.6-5.5-1.23-11.07-1.82-16.73-7.5,5.74-14.95,11.53-22.44,17.29m2.76,19.57c.74,5.26,1.45,10.45,2.19,15.56,7.13-5.51,14.32-11,21.4-16.52-.57-5.23-1.13-10.53-1.73-15.9q-11,8.37-21.86,16.86m22-61.48c.65,6,1.24,11.89,1.83,17.72,7.53-5.76,15-11.61,22.51-17.35-.46-6-.91-12-1.33-18.1q-11.52,8.83-23,17.73m2.19,21.17c.57,5.67,1.13,11.28,1.73,16.81,7.36-5.58,14.63-11.26,21.92-16.92q-.62-8.48-1.25-17.17-11.14,8.7-22.4,17.28m2.06,20.07c.59,5.4,1.1,10.73,1.65,16,7.11-5.52,14.26-11,21.38-16.5-.43-5.36-.78-10.8-1.19-16.32q-10.92,8.43-21.84,16.84m-49.28,58.16c.87,4.88,1.77,9.68,2.6,14.42l20.92-16.15q-1.11-7.27-2.18-14.75-10.67,8.22-21.34,16.48m3.11,17.25c.83,4.64,1.67,9.21,2.48,13.74,6.81-5.26,13.58-10.58,20.42-15.78-.65-4.63-1.41-9.3-2.07-14.06-7,5.34-13.87,10.74-20.83,16.1m3,16.41c.79,4.44,1.6,8.8,2.37,13.12,6.66-5.12,13.28-10.31,19.94-15.41-.63-4.42-1.33-8.88-2-13.41-6.78,5.23-13.54,10.5-20.34,15.7m19.53-53.44q1.07,7.52,2.09,14.83l20.89-16.14c-.53-5-1.09-10-1.65-15.16-7.1,5.5-14.17,11-21.33,16.47m2.5,17.72c.68,4.77,1.33,9.47,2,14.11q10.23-7.85,20.4-15.75c-.5-4.75-1.06-9.56-1.57-14.43-6.9,5.4-13.92,10.66-20.81,16.07m2.38,16.88c.64,4.54,1.29,9,1.89,13.46,6.62-5.16,13.29-10.26,19.92-15.4-.46-4.53-1-9.11-1.5-13.76-6.77,5.22-13.58,10.4-20.31,15.7m20.71-54.35c.54,5.14,1,10.21,1.57,15.21q10.42-8.07,20.87-16.11c-.37-5.11-.74-10.3-1.14-15.55q-10.66,8.2-21.3,16.45m1.87,18.18c.5,4.91,1,9.73,1.5,14.5,6.8-5.24,13.57-10.52,20.37-15.74q-.52-7.31-1.08-14.81-10.41,8-20.79,16.05m1.79,17.33c.46,4.67,1,9.27,1.42,13.82,6.61-5.17,13.26-10.26,19.91-15.38-.38-4.64-.71-9.35-1-14.12-6.79,5.19-13.54,10.44-20.3,15.68m-46,53c.77,4.22,1.49,8.4,2.26,12.53,6.52-5,13-10.11,19.49-15.09-.59-4.22-1.23-8.49-1.88-12.81q-9.88,7.76-19.87,15.37m17.23,17.4,6.7-5.2c-.56-4-1.2-8.12-1.8-12.25-6.55,4.92-12.93,10-19.43,15,.15.81.29,1.61.44,2.42Zm7.47,0-.42-2.81-3.66,2.81Zm-.85-35.84c.6,4.35,1.21,8.64,1.8,12.87q9.76-7.51,19.49-15.07c-.48-4.32-.94-8.71-1.44-13.15l-19.85,15.35m2.16,15.39c.58,4.15,1.18,8.24,1.73,12.3,6.38-4.88,12.69-9.85,19.05-14.74-.47-4.14-.94-8.33-1.37-12.57-6.46,5-12.95,10-19.41,15m11.49,20.45q5.43-4.21,10.87-8.4c-.4-4-.88-8-1.31-12-6.32,4.89-12.72,9.7-19,14.69.25,1.92.53,3.83.8,5.74Zm10.17-54.26c.49,4.46.89,8.87,1.36,13.22q9.67-7.6,19.46-15c-.33-4.44-.65-9-1-13.5-6.63,5.07-13.2,10.25-19.83,15.33m1.63,15.8c.44,4.26.92,8.46,1.3,12.63,6.34-4.91,12.71-9.79,19-14.73-.32-4.24-.65-8.54-1-12.9l-19.38,15m1.55,15.09c.45,4.08.84,8.11,1.25,12.09,6.15-4.87,12.43-9.59,18.61-14.41-.28-4.07-.62-8.18-.9-12.35-6.32,4.9-12.65,9.77-19,14.67m-1.55,23.37c-.23-2.12-.46-4.25-.71-6.4l-8.22,6.4Zm7.22,0q7.63-5.86,15.2-11.81c-.28-3.9-.58-7.84-.86-11.83q-9.24,7.21-18.56,14.36c.36,3.13.67,6.21,1,9.28Zm16.07,0c-.23-3.13-.47-6.3-.7-9.49q-6.09,4.76-12.2,9.49ZM980.86.21q2,29,3.86,56.9,24.82-18.55,49.56-37.16-.39-9.79-.8-19.74Zm5,74q2.83,41.61,5.49,80.69,23.45-17.6,46.85-35.21-1.58-39.89-3.26-82.29-24.53,18.38-49.08,36.81m6.53,96q2.58,37.25,4.93,72.37,22.2-16.75,44.41-33.47-1.43-35.83-2.91-73.81-23.23,17.42-46.43,34.91M1043.76.21c.14,4.13.27,8.23.41,12.33L1060.68.21Zm40.75,0Q1064.64,15.09,1044.77,30q1.44,42.6,2.81,82.61Q1070.94,95,1094.32,77.5q-.25-37.56-.54-77.29Zm-36.4,128q1.31,38.15,2.52,74.1,22.14-16.75,44.32-33.41c-.14-24.43-.37-49.6-.53-75.52q-23.12,17.43-46.31,34.83m55.43-128q.06,36,.11,70.27c15.58-11.67,31.06-23.43,46.63-35.05q.4-17.38.84-35.22Zm.14,86.25q.09,39,.12,75.82c14.71-11.16,29.49-22.22,44.22-33.33q.88-37.5,1.86-77.24-23.1,17.35-46.2,34.75M998.13,254.21q2.32,33.63,4.45,65.44,21.18-15.94,42.28-31.94-1.27-32.44-2.64-66.75-22,16.6-44.09,33.25m5.3,77.88q2.07,30.46,4,59.33,20.13-15.27,40.29-30.5-1.18-29.46-2.4-60.51c-13.95,10.57-28,21.08-41.93,31.68m4.81,70.64c1.23,18.46,2.49,36.46,3.67,54l38.48-29.18q-1.07-26.86-2.18-55.11-20,15.14-40,30.27M1051,214.33q1.17,34.44,2.28,67c14-10.67,28.17-21.2,42.19-31.86q-.24-33.21-.47-68.31-22,16.6-44,33.17m2.71,79.75q1.11,31.19,2.07,60.75c13.38-10.19,26.82-20.29,40.21-30.43q-.18-30.16-.43-61.94-20.91,15.81-41.85,31.62m2.46,72.33q1,28.36,1.88,55.33,19.23-14.55,38.42-29.13-.21-27.5-.4-56.4l-39.9,30.2m47.62-191.88q.06,35.25.12,68.57Q1125,227.21,1146,211.3q.81-34,1.69-69.87c-14.66,11-29.24,22.09-43.9,33.1m.13,81.61q.06,31.92.1,62.17,20.07-15.21,40.13-30.37c.54-20.56,1-41.67,1.53-63.35q-20.85,15.78-41.76,31.55m.12,74q0,29,.1,56.62c12.76-9.72,25.57-19.36,38.32-29.07q.69-28.11,1.4-57.7-19.89,15.08-39.82,30.15m-91.56,135.36q1.69,25.37,3.37,49.51c12.33-9.29,24.57-18.68,36.86-28q-.95-24.65-2-50.51-19.11,14.5-38.24,29m4,59c1.09,15.5,2.08,30.63,3.09,45.43,11.77-9,23.62-17.87,35.35-26.88q-.9-22.65-1.83-46.37-18.29,13.92-36.61,27.82m3.68,54.15q1.44,21.41,2.85,41.86c11.36-8.59,22.62-17.28,34-25.87q-.82-20.88-1.69-42.7-17.58,13.31-35.11,26.71m38.18-147.94q.9,26,1.73,50.71,18.41-14,36.8-27.95-.18-25.23-.36-51.7-19.08,14.44-38.17,28.94m2.06,60.41q.82,23.82,1.58,46.55,17.64-13.44,35.28-26.85c-.1-15.45-.18-31.26-.32-47.45q-18.29,13.86-36.54,27.75m1.88,55.48q.78,21.93,1.46,42.88c11.32-8.6,22.64-17.17,33.89-25.82q-.12-21.37-.31-43.73-17.5,13.34-35,26.67M1104.18,396q.06,26.6.08,51.9c12.27-9.28,24.48-18.63,36.74-27.9q.62-25.81,1.27-52.89-19.05,14.42-38.09,28.89m.1,61.84c0,16.25,0,32.13.08,47.64,11.74-8.94,23.51-17.83,35.22-26.79q.59-23.71,1.17-48.56c-12.13,9.25-24.33,18.44-36.47,27.71m.09,56.79c0,15,.07,29.59.07,43.89q16.95-12.87,33.83-25.78.57-21.86,1.08-44.73-17.44,13.35-35,26.62m-80.85,112.74q1.32,19.8,2.63,38.75l32.69-24.93q-.78-19.35-1.56-39.55-16.89,12.86-33.76,25.73m3.14,46.21q1.26,18.33,2.45,35.92,15.72-12.06,31.48-24-.72-17.94-1.45-36.65-16.22,12.41-32.48,24.78m2.92,42.83q1.15,17,2.27,33.39c10.13-7.73,20.23-15.5,30.37-23.22q-.69-16.7-1.35-34.07-15.63,12-31.29,23.9M1064,596.51q.72,20.26,1.35,39.7,16.35-12.42,32.63-24.89-.12-19.83-.28-40.5-16.85,12.84-33.7,25.69m1.61,47.33c.43,12.52.81,24.79,1.25,36.81q15.69-12.06,31.44-24-.15-18.39-.27-37.53-16.23,12.32-32.42,24.73m1.49,43.89c.38,11.64.79,23,1.16,34.21,10.1-7.75,20.27-15.4,30.33-23.19q-.09-17.09-.25-34.89-15.6,12-31.24,23.87m37.33-122q0,20.76.07,40.65,16.24-12.5,32.58-24.85c.29-13.52.66-27.33,1-41.43-11.22,8.52-22.41,17.1-33.65,25.63m.08,48.47q0,19.23.07,37.68,15.68-12,31.38-24,.48-18.81.92-38.41c-10.8,8.21-21.55,16.49-32.37,24.7m.08,44.94q0,17.85.05,35,15.13-11.58,30.28-23.14.4-17.51.86-35.7c-10.38,8-20.8,15.87-31.19,23.83m-72.39,96.18q1.08,15.88,2.12,31.16c9.76-7.54,19.57-15,29.35-22.48q-.59-15.59-1.25-31.79l-30.22,23.11m2.53,37.17c.7,9.88,1.32,19.58,2,29.1l28.38-21.74q-.57-14.58-1.18-29.7c-9.74,7.42-19.43,14.92-29.18,22.34m2.36,34.73c.65,9.25,1.22,18.33,1.86,27.24,9.14-7,18.35-14,27.47-21.07-.36-9.1-.75-18.36-1.11-27.8q-14.07,10.86-28.22,21.63m31.36-99.63q.57,16.28,1.09,31.92c9.8-7.44,19.51-15,29.31-22.43-.1-10.65-.15-21.5-.23-32.57q-15.06,11.58-30.17,23.08m1.3,38.09q.51,15.2,1,29.82c9.48-7.2,18.87-14.5,28.34-21.71q-.09-14.93-.21-30.42-14.55,11.17-29.14,22.31m1.2,35.59c.34,9.47.64,18.77,1,27.91,9.14-7,18.31-14,27.44-21,0-9.32-.14-18.81-.2-28.47q-14.09,10.8-28.19,21.6m33.7-101.36c0,11.1,0,22,.06,32.69q14.65-11.19,29.26-22.4.36-16.36.81-33.33c-10,7.67-20,15.4-30.13,23m.07,39q0,15.54,0,30.53,14.21-10.78,28.3-21.68.39-15.27.75-31.13l-29.09,22.28m0,36.44q0,14.55,0,28.58,13.7-10.51,27.39-21c.22-9.54.49-19.25.71-29.14q-14.06,10.8-28.15,21.57m-65.52,83.6q.92,13,1.74,25.6c8.87-6.84,17.78-13.61,26.64-20.45q-.53-12.84-1-26.12-13.65,10.5-27.35,21m2.08,30.56c.56,8.15,1.08,16.17,1.64,24,8.62-6.61,17.21-13.25,25.83-19.84-.33-8-.63-16.23-1-24.55-8.81,6.79-17.72,13.49-26.5,20.34m2,28.72c.53,7.67,1,15.22,1.53,22.65,8.38-6.4,16.72-12.87,25.08-19.29q-.42-11.35-.91-23.11-12.87,9.85-25.7,19.75m28.77-84.45q.45,13.35.89,26.23c8.86-6.82,17.77-13.58,26.61-20.42q-.09-13.14-.19-26.76c-9.07,7-18.21,14-27.31,21m1.07,31.32q.42,12.53.83,24.64,13-9.84,25.81-19.81-.09-12.37-.18-25.15c-8.82,6.77-17.68,13.5-26.46,20.32m1,29.43q.4,11.81.79,23.22c8.35-6.44,16.66-12.9,25-19.26q-.12-11.64-.16-23.69c-8.56,6.57-17.07,13.2-25.68,19.73m30.71-85.88c0,9.11,0,18.06,0,26.86q13.26-10.23,26.57-20.4.26-13.44.66-27.38-13.63,10.44-27.27,20.92m.05,32.07c0,8.56,0,17,0,25.25q12.9-9.9,25.76-19.8.33-12.66.63-25.75c-8.79,6.78-17.66,13.47-26.43,20.3m0,30.14c0,8.06,0,16,0,23.78q12.49-9.63,25-19.24c.18-7.94.41-16,.59-24.24-8.51,6.62-17.09,13.14-25.64,19.7m-59.85,73.76c.53,7.25.94,14.38,1.46,21.4q12.17-9.42,24.38-18.76c-.24-7.17-.59-14.44-.87-21.84q-12.49,9.57-25,19.2m1.74,25.56c.42,6.85.94,13.58,1.37,20.21q11.88-9.09,23.71-18.25c-.22-6.76-.57-13.64-.81-20.63-8.1,6.21-16.17,12.46-24.27,18.67m1.65,24.15q.67,9.71,1.29,19.14c7.69-5.93,15.36-11.9,23.07-17.78-.25-6.41-.53-12.92-.77-19.53-7.89,6-15.74,12.1-23.59,18.17m26.58-72.75c.29,7.43.48,14.73.74,21.93q12.15-9.42,24.35-18.73-.11-11-.15-22.38c-8.32,6.38-16.59,12.83-24.94,19.18m.88,26.2c.26,7,.51,13.91.71,20.72q11.85-9.12,23.68-18.24c-.06-6.93-.09-14-.15-21.14-8.1,6.18-16.13,12.46-24.24,18.66m.85,24.75c.22,6.64.42,13.17.66,19.6q11.52-8.88,23-17.75c0-6.56-.08-13.23-.14-20q-11.77,9.07-23.57,18.15m28.19-74c0,7.61.06,15.09,0,22.46,8.13-6.23,16.25-12.44,24.32-18.72.18-7.51.38-15.14.56-22.89q-12.48,9.54-24.92,19.15m0,26.82c0,7.19,0,14.26,0,21.23,7.88-6.08,15.72-12.21,23.65-18.22.22-7.09.34-14.31.52-21.63-8,6.24-16.2,12.32-24.2,18.62m0,25.35q0,10.21,0,20.09c7.67-5.91,15.31-11.86,23-17.73.18-6.72.31-13.55.49-20.48q-11.76,9.07-23.54,18.12M1050,1016.59c.42,6.14.82,12.19,1.24,18.16,7.48-5.8,15-11.49,22.47-17.33-.26-6.09-.47-12.27-.73-18.54-7.64,5.93-15.26,11.88-23,17.71m1.47,21.69c.43,5.82.77,11.57,1.18,17.23,7.32-5.61,14.58-11.28,21.9-16.89-.23-5.78-.44-11.65-.7-17.59-7.43,5.78-14.93,11.48-22.38,17.25m1.4,20.59c.4,5.54.75,11,1.12,16.38q10.71-8.22,21.36-16.49c-.24-5.49-.41-11.06-.66-16.72-7.3,5.58-14.55,11.21-21.82,16.83m24.7-63.53q.36,9.45.64,18.62c7.48-5.79,14.94-11.58,22.45-17.32q0-9.35-.13-19c-7.66,5.88-15.27,11.84-23,17.68m.76,22.24c.22,6,.44,11.86.61,17.67q11-8.38,21.87-16.89c0-5.92-.08-11.93-.13-18-7.41,5.79-14.9,11.48-22.35,17.23m.72,21.1q.3,8.5.57,16.79,10.67-8.25,21.33-16.47c0-5.63-.09-11.34-.11-17.13-7.26,5.62-14.57,11.15-21.79,16.81m26.06-64.56c0,6.45,0,12.8,0,19.06,7.45-5.8,14.94-11.54,22.43-17.29.14-6.38.27-12.86.47-19.44-7.64,5.9-15.26,11.82-22.94,17.67m0,22.78c0,6.11,0,12.14,0,18.09q10.89-8.46,21.85-16.86.2-9.09.45-18.45c-7.42,5.77-14.93,11.43-22.34,17.22m0,21.61c0,5.82,0,11.54,0,17.2q10.63-8.26,21.31-16.45c.14-5.76.26-11.61.42-17.53-7.26,5.58-14.48,11.22-21.76,16.78m-51,59.45c.39,5.27.7,10.48,1.06,15.6,7-5.33,13.86-10.79,20.85-16.1-.24-5.23-.39-10.55-.63-15.92-7.11,5.45-14.18,11-21.28,16.42m1.26,18.65c.35,5,.68,10,1,14.85,6.77-5.25,13.52-10.54,20.35-15.72q-.27-7.5-.6-15.17c-6.87,5.4-13.83,10.7-20.77,16m1.21,17.75c.32,4.79.67,9.51,1,14.17,6.61-5.13,13.22-10.29,19.88-15.36-.2-4.76-.37-9.58-.57-14.47q-10.08,7.89-20.28,15.66m23.06-56.11c.22,5.4.36,10.73.54,16,6.92-5.4,13.91-10.71,20.83-16.09q-.06-8-.11-16.31-10.67,8.15-21.26,16.41m.65,19.11c.2,5.14.34,10.23.52,15.23,6.79-5.21,13.59-10.43,20.33-15.71,0-5.11-.06-10.28-.11-15.54q-10.33,8-20.74,16m.62,18.21c.16,4.9.36,9.75.5,14.53,6.59-5.15,13.28-10.2,19.86-15.36q-.09-7.32-.1-14.82-10.12,7.82-20.26,15.65m24.24-57c0,5.54.06,11,0,16.38,6.94-5.36,13.85-10.74,20.81-16.07.11-5.49.2-11.07.4-16.7-7.11,5.41-14.18,10.9-21.24,16.39m0,19.58c0,5.27,0,10.47,0,15.61q10.17-7.86,20.31-15.7c.14-5.24.25-10.54.39-15.92-6.94,5.3-13.82,10.66-20.73,16m0,18.65c0,5,0,10,0,14.88,6.63-5.09,13.22-10.24,19.84-15.34.1-5,.28-10,.36-15.18-6.76,5.19-13.46,10.46-20.23,15.64m-47.5,54.1q.46,6.85.92,13.55c6.5-5,12.94-10.06,19.44-15-.16-4.55-.35-9.16-.54-13.83-6.58,5.15-13.21,10.22-19.82,15.32m1.09,16.19c.29,4.38.57,8.69.89,13,6.36-4.88,12.62-9.87,19-14.71-.19-4.35-.32-8.75-.52-13.21-6.49,4.94-12.91,10-19.38,15m1.06,15.48c.28,4.19.57,8.31.84,12.39q9.32-7.2,18.6-14.4-.27-6.24-.5-12.64c-6.34,4.83-12.64,9.75-18.94,14.65m21.63-50c.17,4.69.33,9.31.47,13.89,6.49-5,12.94-10,19.42-15,0-4.67-.06-9.39-.09-14.17-6.62,5.08-13.23,10.16-19.8,15.3m.56,16.6q.18,6.72.45,13.27c6.36-4.86,12.68-9.78,19-14.69,0-4.46,0-9-.09-13.55q-9.69,7.45-19.35,15m.54,15.87c.12,4.29.28,8.51.43,12.7q9.27-7.23,18.58-14.39c0-4.27-.11-8.59-.09-13-6.28,4.9-12.57,9.81-18.92,14.64m22.65-50.83c0,4.8,0,9.54,0,14.22,6.47-5,13-10,19.4-15,.14-4.78.23-9.61.35-14.51l-19.78,15.29m0,17c0,4.59,0,9.12,0,13.6,6.33-4.89,12.69-9.75,19-14.68.12-4.56.23-9.19.33-13.86-6.46,5-12.87,10-19.33,14.94m0,16.26c0,4.39,0,8.72,0,13,6.2-4.78,12.42-9.52,18.56-14.37.1-4.37.24-8.79.32-13.27q-9.43,7.34-18.91,14.63M1060.91,1177c.28,4,.54,8,.81,11.88,6-4.78,12.15-9.4,18.22-14.1-.12-4-.35-8-.49-12.13-6.16,4.81-12.36,9.56-18.54,14.35m1,14.2c.26,3.85.52,7.63.77,11.38,6-4.58,12-9.13,17.84-13.81-.12-3.83-.32-7.7-.46-11.62-6,4.73-12.11,9.36-18.15,14m18,11.89,1.16-.89c-.12-3.68-.26-7.4-.44-11.15-5.16,4-10.39,8-15.56,12Zm3.3-43.3c.16,4.1.32,8.16.41,12.17,6-4.76,12.16-9.37,18.2-14.09,0-4.09-.07-8.23-.09-12.42-6.22,4.71-12.32,9.59-18.52,14.34m.49,14.55c.15,3.94.3,7.83.4,11.67,5.92-4.63,11.91-9.18,17.82-13.8-.06-3.92-.06-7.9-.08-11.91l-18.14,14m.48,14c.14,3.78.28,7.51.38,11.19,5.87-4.44,11.6-9.06,17.46-13.51-.06-3.77-.08-7.58-.08-11.43-5.92,4.59-11.87,9.13-17.76,13.75m21.26-45.7c0,4.2,0,8.36,0,12.47,6.09-4.66,12.09-9.43,18.18-14.09.1-4.19.25-8.42.31-12.71-6.18,4.77-12.31,9.59-18.51,14.33m0,14.91c0,4,0,8,0,12,5.9-4.64,11.87-9.19,17.8-13.79.08-4,.27-8.08.29-12.19-6,4.77-12.11,9.31-18.12,14m0,14.29c0,3.86,0,7.68,0,11.46,5.82-4.5,11.66-9,17.44-13.51.11-3.85.23-7.75.29-11.69-5.89,4.61-11.83,9.15-17.74,13.74m-8.91,31.3q2.76-2.13,5.53-4.25c0-3.62-.06-7.28-.08-11-5.75,4.56-11.59,9-17.41,13.48l.06,1.74Zm5.55,0c0-.7,0-1.4,0-2.1l-2.68,2.1Zm3.38-17.92c0,3.71,0,7.38,0,11,5.71-4.41,11.37-8.88,17.1-13.25.08-3.71.19-7.45.27-11.25-5.84,4.45-11.58,9-17.39,13.48m7.6,17.92c3.08-2.38,6.14-4.76,9.21-7.15.09-3.56.19-7.16.25-10.8q-8.52,6.58-17,13.21c0,1.59,0,3.17,0,4.74Zm9,0c0-1.67.08-3.35.14-5-2.18,1.66-4.36,3.34-6.52,5ZM1159,.21q-.42,14.79-.83,29.27,19.47-14.65,38.94-29.27ZM1200,14q-21.13,15.87-42.27,31.79-1.17,39.89-2.2,77.48,22.1-16.62,44.13-33.25.16-3.29.34-6.59Zm-44.83,121.8q-1,36-2,70.08,21-15.89,42-31.74,1.83-34.69,3.78-71.37-21.88,16.51-43.81,33m-2.37,83.41q-.91,32.63-1.8,63.55,20-15.18,40-30.31,1.67-31.51,3.43-64.73-20.84,15.73-41.68,31.49m-2.15,75.67q-.87,29.67-1.64,57.89,19.14-14.52,38.26-29c1-19.16,2-38.81,3.13-59q-19.85,15.06-39.75,30.09M1200,230.34q-.46,8.08-1,16.07l1-.71Zm0,27.2-1.67,1.25q-1.75,30.36-3.41,59.18l5.08-3.87ZM1148.74,362.2q-.75,27.18-1.51,53.06,18.35-13.93,36.67-27.85,1.39-26.37,2.86-54.05-19,14.43-38,28.84m-1.8,63.23q-.68,24.92-1.38,48.71,17.65-13.29,35.16-26.75c.89-16.16,1.68-32.71,2.63-49.63q-18.19,13.83-36.41,27.67m-1.65,58.06c-.44,15.29-.83,30.25-1.27,44.88q16.88-12.92,33.77-25.74,1.18-22.35,2.43-45.72-17.46,13.27-34.93,26.58M1200,323.31l-5.64,4.29q-1.59,27.78-3.14,54.25l8.78-6.66Zm0,61.79-9.37,7.14q-1.47,25.47-2.88,49.8,6.13-4.64,12.25-9.3Zm0,56.75-12.8,9.75q-1.34,23.46-2.66,45.89L1200,485.67Zm-56.19,93.85q-.58,21.24-1.18,41.57,16.29-12.37,32.53-24.82,1.1-20.72,2.24-42.34-16.77,12.82-33.59,25.59m-1.41,49.56q-.56,19.68-1.09,38.54c10.43-8,20.91-15.94,31.34-23.94q1.06-19.22,2.07-39.26-16.17,12.3-32.32,24.66m-1.31,46c-.31,12.18-.69,24.11-1,35.81,10.07-7.72,20.18-15.38,30.22-23.11.68-11.93,1.25-24.09,1.94-36.49-10.36,8-20.77,15.84-31.15,23.79M1200,492.91,1184.11,505q-1.23,21.72-2.46,42.51,9.19-7,18.35-14Zm0,48.42q-9.39,7.18-18.82,14.35-1.12,20.12-2.27,39.4Q1189.44,587,1200,579Zm0,44.88q-10.77,8.22-21.53,16.46-1,18.71-2.12,36.63,11.84-9,23.65-18.06Zm-60.09,86.7c-.36,11.36-.65,22.51-1,33.44,9.74-7.47,19.51-14.9,29.23-22.38q.91-16.69,1.8-34.06c-10,7.63-20,15.36-30.08,23m-1.13,39.9q-.42,15.9-.89,31.23,14.16-10.8,28.26-21.66.81-15.61,1.69-31.82-14.52,11.13-29.06,22.25m-1.06,37.27q-.42,14.89-.83,29.24c9.14-7,18.22-14,27.35-21q.78-14.64,1.58-29.8c-9.38,7.15-18.73,14.36-28.1,21.54M1200,626.94q-12,9.15-24,18.37c-.67,11.62-1.3,23-2,34.2q13-10,26-19.9Zm0,39c-8.8,6.71-17.55,13.48-26.36,20.19q-.95,16.27-1.84,31.95c9.4-7.22,18.85-14.35,28.2-21.61Zm-28.55,58.32q-.9,15.21-1.73,29.91,13.66-10.49,27.32-21c.83-10,1.61-20.13,2.47-30.46q-14.07,10.69-28.06,21.51m-34.7,59.89q-.39,14-.78,27.48c8.83-6.81,17.71-13.56,26.53-20.36.47-9.18,1-18.51,1.49-28-9.1,6.92-18.16,13.92-27.24,20.88m-.93,32.81c-.24,8.75-.5,17.36-.73,25.83,8.55-6.63,17.19-13.15,25.73-19.78q.72-12.93,1.39-26.32c-8.79,6.75-17.57,13.54-26.39,20.27m-.88,30.84c-.28,8.24-.45,16.34-.69,24.32q12.55-9.54,25-19.21c.44-8.13.84-16.39,1.32-24.79q-12.81,9.82-25.61,19.68m34.49-88.71c-.6,9.53-1.07,18.9-1.63,28.11q13.29-10.14,26.5-20.34c.76-9.38,1.57-18.92,2.33-28.64q-13.61,10.42-27.2,20.87m-1.94,33.56c-.52,9-1,17.76-1.52,26.41,8.58-6.56,17.1-13.21,25.7-19.74q1-13.24,2.18-26.92-13.15,10.15-26.36,20.25m-1.82,31.54c-.46,8.43-1,16.72-1.44,24.88q12.43-9.66,25-19.19,1-12.47,2.06-25.34c-8.5,6.57-17.06,13.08-25.57,19.65M1200,758.25c-.13,1.51-.27,3-.4,4.52l.4-.31Zm0,9.41-.88.68c-.8,9.15-1.53,18.16-2.32,27l3.2-2.47Zm0,30.13-3.65,2.8q-1.1,12.93-2.19,25.44l5.84-4.46Zm-65.86,78.33c-.16,7.79-.44,15.44-.66,23l24.3-18.68c.37-7.7.8-15.5,1.24-23.43-8.27,6.4-16.59,12.75-24.88,19.14m-.78,27.44c-.2,7.36-.42,14.59-.62,21.71q11.8-9.1,23.63-18.18.59-10.89,1.17-22.14c-8.08,6.18-16.09,12.45-24.18,18.61m-.74,26c-.2,6.94-.37,13.8-.58,20.54,7.64-5.94,15.34-11.79,23-17.71.33-6.89.73-13.86,1.11-20.94-7.83,6.05-15.72,12-23.52,18.11M1164,853.15q-.66,12-1.36,23.52c8.11-6.2,16.23-12.39,24.26-18.67q1-11.78,1.95-24c-8.3,6.34-16.55,12.75-24.85,19.1m-1.62,28.09c-.46,7.52-.87,14.92-1.29,22.21q11.76-9.15,23.6-18.17.9-11.14,1.84-22.63c-8,6.2-16.14,12.35-24.15,18.59m-1.53,26.53c-.42,7.12-.85,14.13-1.22,21,7.65-5.91,15.25-11.88,23-17.69.54-7,1.17-14.17,1.75-21.42q-11.76,9-23.49,18.08M1200,825.43l-6.19,4.81c-.74,8.13-1.41,16.14-2.06,24,2.74-2.14,5.5-4.28,8.25-6.41Zm0,26.82c-2.88,2.23-5.76,4.47-8.65,6.69q-1,11.53-1.95,22.71,5.31-4.06,10.6-8.17Zm0,25.35-11,8.47q-.84,10.92-1.84,21.5,6.43-4.89,12.83-9.85Zm-68.06,75.86q-.27,9.9-.56,19.5,11.19-8.67,22.41-17.27c.34-6.54.67-13.16,1-19.88-7.61,5.9-15.27,11.75-22.9,17.65m-.66,23.3c-.18,6.26-.37,12.41-.53,18.5,7.3-5.59,14.51-11.29,21.83-16.84.34-6.19.69-12.48,1-18.87q-11.14,8.6-22.3,17.21m-.63,22.11c-.18,6-.32,11.81-.5,17.59,7.14-5.42,14.16-11,21.29-16.42.32-5.9.61-11.88,1-17.93q-10.86,8.37-21.74,16.76m28.77-66.59c-.33,6.76-.8,13.4-1.15,20,7.49-5.72,14.91-11.51,22.37-17.26.52-6.68,1.1-13.45,1.66-20.32-7.66,5.82-15.19,11.82-22.88,17.62M1158,956.12c-.34,6.41-.76,12.71-1.09,18.94,7.21-5.69,14.54-11.21,21.81-16.82.52-6.35,1-12.77,1.56-19.3-7.42,5.73-14.89,11.4-22.28,17.18m-1.3,22.63q-.51,9.13-1,18,10.62-8.22,21.26-16.41c.52-6,1-12.15,1.49-18.35-7.21,5.62-14.48,11.16-21.71,16.76M1200,901c-4.38,3.36-8.77,6.73-13.13,10.12-.62,6.9-1.13,13.7-1.75,20.4L1200,920.08Zm0,22.74q-7.62,5.87-15.22,11.76c-.62,6.53-1.14,13-1.67,19.36q8.45-6.52,16.89-13Zm0,21.61c-5.74,4.42-11.46,8.88-17.21,13.29-.51,6.22-1.08,12.35-1.58,18.4q9.39-7.26,18.79-14.51Zm-69.93,74c-.18,5.66-.38,11.25-.48,16.76,6.93-5.35,13.91-10.63,20.79-16.05.29-5.62.61-11.31.9-17.08-7,5.49-14.15,10.9-21.21,16.37m-.57,20q-.21,8.08-.46,16c6.79-5.2,13.58-10.4,20.3-15.68q.44-8,.86-16.28c-6.86,5.38-13.82,10.64-20.7,16m-.55,19.08c-.14,5.15-.27,10.22-.43,15.23,6.63-5.08,13.19-10.26,19.83-15.32.25-5.12.58-10.29.81-15.53-6.7,5.25-13.51,10.35-20.2,15.62m26.56-58.76c-.37,5.79-.65,11.51-1,17.14,6.87-5.41,13.82-10.73,20.76-16,.43-5.74.91-11.58,1.43-17.48-7,5.49-14.13,10.91-21.2,16.37m-1.18,20.49c-.3,5.51-.63,11-.95,16.33,6.73-5.26,13.54-10.42,20.27-15.66.46-5.48.88-11,1.36-16.64-6.9,5.32-13.85,10.57-20.68,16m-1.13,19.53c-.32,5.26-.61,10.46-.9,15.59,6.59-5.13,13.23-10.18,19.8-15.32q.63-7.83,1.29-15.88-10.08,7.81-20.19,15.61M1200,965.39c-6.37,4.88-12.68,9.82-19,14.71-.51,5.93-1,11.78-1.5,17.55,6.85-5.3,13.66-10.64,20.55-15.89Zm-20.85,35.68c-.5,5.64-1,11.21-1.43,16.7,6.77-5.19,13.46-10.48,20.25-15.65.6-5.6,1.25-11.26,1.84-17-6.87,5.33-13.78,10.62-20.66,16m-1.71,20c-.5,5.37-.92,10.69-1.37,15.93,6.61-5.08,13.19-10.2,19.79-15.29.58-5.34,1.18-10.75,1.75-16.23-6.77,5.13-13.44,10.4-20.17,15.59m-49,55.22c-.14,4.91-.25,9.77-.41,14.56,6.46-5,12.88-10.06,19.38-15,.22-4.89.53-9.83.79-14.84-6.63,5-13.14,10.23-19.76,15.28m-.5,17.4c-.11,4.7-.27,9.33-.39,13.91,6.32-4.89,12.63-9.8,19-14.66.27-4.67.49-9.39.75-14.19-6.38,5-12.84,10-19.32,14.94m-.46,16.64c-.1,4.49-.26,8.93-.38,13.31,6.17-4.8,12.33-9.61,18.54-14.36.24-4.47.49-9,.72-13.57q-9.42,7.33-18.88,14.62m24.67-52.37c-.3,5-.55,10-.87,14.9q9.75-7.42,19.38-15c.39-5,.84-10.06,1.23-15.18-6.57,5.1-13.2,10.11-19.74,15.26m-1,17.81c-.25,4.81-.53,9.54-.82,14.23,6.35-4.82,12.59-9.82,18.94-14.65.35-4.78.77-9.6,1.17-14.51-6.41,5-12.87,9.94-19.29,14.93m-1,17c-.26,4.59-.51,9.14-.79,13.63,6.2-4.77,12.33-9.6,18.53-14.35.4-4.57.75-9.2,1.13-13.89-6.33,4.83-12.58,9.74-18.87,14.61m25.7-53.14c-.44,5.14-.89,10.21-1.31,15.24q9.68-7.48,19.35-15c.55-5.12,1.1-10.3,1.68-15.53q-9.81,7.7-19.72,15.25m-1.57,18.21q-.58,7.38-1.25,14.56c6.34-4.84,12.62-9.76,18.93-14.64.49-4.89,1-9.83,1.6-14.82-6.45,4.93-12.83,10-19.28,14.9m-1.49,17.41q-.6,7-1.2,13.93c6.18-4.77,12.38-9.5,18.51-14.33q.74-7,1.54-14.18c-6.28,4.86-12.61,9.67-18.85,14.58M1127,1125.82c-.1,4.31-.26,8.56-.36,12.77q9.13-7,18.16-14.07.4-6.43.69-13c-6.16,4.77-12.34,9.52-18.49,14.31m-.43,15.27c-.14,4.11-.23,8.2-.35,12.22,5.93-4.58,11.85-9.19,17.79-13.77.26-4.12.46-8.27.66-12.47-6,4.7-12.07,9.33-18.1,14m-.42,14.62c-.14,4-.23,7.87-.33,11.74,5.79-4.53,11.65-9,17.43-13.5.26-3.94.41-7.93.63-12-6,4.51-11.82,9.15-17.73,13.73m23-47.06c-.22,4.4-.52,8.75-.75,13.06,6-4.73,12.09-9.37,18.14-14.06.31-4.38.71-8.81,1.08-13.3-6.2,4.71-12.3,9.54-18.47,14.3m-.91,15.62q-.33,6.32-.72,12.52,9-6.82,17.77-13.77c.32-4.21.7-8.46,1-12.76-6,4.69-12.11,9.27-18.09,14m-.86,15c-.2,4-.45,8-.69,12q8.71-6.74,17.41-13.5c.32-4,.64-8.11,1-12.23-5.9,4.58-11.76,9.21-17.71,13.71m23.93-47.74q-.56,6.77-1.14,13.36c6-4.71,12-9.45,18.13-14,.45-4.49,1-9,1.47-13.6-6.12,4.79-12.26,9.57-18.46,14.28m-1.36,16c-.38,4.33-.7,8.6-1.11,12.8q8.89-6.85,17.76-13.74c.46-4.31,1-8.64,1.41-13-6,4.62-12,9.35-18.06,14m-1.32,15.32c-.34,4.14-.74,8.22-1,12.28,5.8-4.5,11.63-8.93,17.39-13.48.48-4.12.85-8.3,1.35-12.51-5.89,4.57-11.8,9.12-17.69,13.71m-42.91,46.62c-.07,3.81-.19,7.56-.31,11.28,5.72-4.38,11.38-8.84,17.08-13.24.15-3.79.41-7.62.61-11.5l-17.38,13.46m-.38,13.49c-.08,3.66-.17,7.27-.31,10.84,5.6-4.31,11.14-8.71,16.75-13,.2-3.65.37-7.33.59-11-5.64,4.45-11.38,8.77-17,13.2m3.46,20.2q6.16-4.77,12.31-9.56c.22-3.49.32-7,.56-10.62q-8.34,6.48-16.7,12.94-.1,3.64-.21,7.24Zm17.77-49.85c-.22,3.9-.47,7.75-.66,11.56,5.67-4.44,11.4-8.8,17.07-13.24.36-3.88.6-7.81,1-11.77-5.82,4.44-11.58,9-17.36,13.45m-.8,13.81c-.22,3.74-.46,7.43-.64,11.09,5.59-4.32,11.12-8.71,16.74-13q.51-5.58.92-11.29c-5.64,4.43-11.36,8.75-17,13.18m-.76,13.27c-.27,3.59-.4,7.15-.62,10.66,5.48-4.23,10.92-8.53,16.42-12.73.25-3.59.62-7.2.88-10.87-5.61,4.25-11.14,8.6-16.68,12.94m22.39-43.22c-.37,4-.67,7.91-1,11.81q8.51-6.65,17.06-13.22c.46-4,.88-8,1.3-12-5.73,4.55-11.53,9-17.35,13.44m-1.21,14.13c-.25,3.83-.64,7.6-1,11.34,5.6-4.3,11.16-8.63,16.73-13,.39-3.81.84-7.66,1.25-11.56l-17,13.19m-1.16,13.57c-.34,3.67-.66,7.3-.94,10.9,5.49-4.2,10.95-8.46,16.4-12.72.42-3.66.85-7.35,1.21-11.11-5.55,4.32-11.17,8.55-16.67,12.93m-24.42,38.29c.15-2.57.27-5.17.4-7.78-3.32,2.61-6.67,5.19-10,7.78Zm3.68-10.32c-.17,3.46-.36,6.89-.6,10.27,5.41-4.11,10.69-8.41,16.12-12.5.25-3.47.53-7,.85-10.48q-8.17,6.38-16.37,12.71m14,10.32.53-.42c.26-3.32.59-6.67.82-10.08-4.48,3.55-9,7-13.55,10.5Zm5.65-25.56q-.45,5.29-.91,10.51c5.37-4.17,10.76-8.31,16.1-12.5.42-3.52.78-7.09,1.16-10.71-5.49,4.19-10.89,8.48-16.35,12.7m-1.09,12.57c-.28,3.41-.58,6.78-.86,10.12,5.27-4.08,10.52-8.19,15.8-12.27.34-3.39.74-6.82,1.12-10.3-5.33,4.18-10.74,8.24-16.06,12.45m9.58,13c1.37-1,2.72-2.1,4.07-3.17.41-3.27.67-6.6,1.07-9.94-5.28,4-10.5,8.16-15.76,12.23,0,.29-.05.59-.08.88Zm3.72,0c0-.5.11-1,.17-1.51l-2,1.51ZM1200,1012.26c-.26,2.29-.53,4.56-.78,6.82l.78-.6Zm0,8.69-1.09.83c-.64,5.26-1.22,10.44-1.74,15.57l2.83-2.2Zm0,17-3.16,2.45c-.58,5-1.16,10-1.67,14.87l4.83-3.73Zm0,16.23-5.16,4c-.56,4.8-1.07,9.55-1.59,14.24q3.36-2.65,6.75-5.27Zm0,15.16c-2.34,1.81-4.69,3.62-7,5.45q-.81,6.9-1.52,13.65l8.54-6.63Zm0,15q-4.39,3.4-8.84,6.77c-.51,4.42-1,8.77-1.46,13.09l10.3-8Zm0,14.23q-5.3,4.1-10.59,8.19c-.41,4.24-1,8.41-1.4,12.55,4-3.15,8-6.21,12-9.29Zm0,13.39c-4.07,3.14-8.17,6.26-12.22,9.44-.44,4.07-.88,8.08-1.36,12.06,4.53-3.51,9-7,13.58-10.54Zm0,13.12c-4.62,3.57-9.22,7.18-13.84,10.75-.4,3.91-.9,7.77-1.3,11.59,5-4,10.1-7.81,15.14-11.73Zm0,12.66c-5.14,4-10.28,7.93-15.4,12-.44,3.75-.84,7.48-1.24,11.16,5.47-4.24,10.89-8.55,16.39-12.72.09-.61.17-1.22.25-1.84Zm-16.85,25c-.37,3.62-.79,7.19-1.2,10.74,5.36-4.18,10.75-8.3,16.1-12.48q.66-5.43,1.45-10.94c-5.49,4.16-10.9,8.44-16.35,12.68m-1.43,12.85c-.4,3.47-.79,6.93-1.16,10.34,5.29-4,10.53-8.17,15.79-12.27.5-3.47,1-7,1.4-10.53-5.35,4.15-10.71,8.28-16,12.46m-1.38,12.37c-.42,3.35-.75,6.68-1.12,10,5.15-4,10.36-8,15.51-12,.43-3.35.92-6.73,1.35-10.15-5.24,4.09-10.47,8.18-15.74,12.22m19.66-20.32c-.16,1.2-.32,2.39-.49,3.58l.49-.38Zm0,5.07-.77.59c-.48,3.43-1,6.82-1.4,10.18l2.17-1.69Zm-14.27,30.44q3.72-2.91,7.46-5.77c.42-3.24.84-6.51,1.31-9.79-5.13,4-10.33,8-15.47,12-.12,1.19-.25,2.38-.39,3.56Zm6.7,0q.27-1.9.51-3.84l-5,3.84Zm7.57-19.84-2.41,1.87c-.41,3.32-.89,6.59-1.35,9.84L1200,1192Zm0,10.52-4,3.11c-.28,2.09-.59,4.15-.87,6.21h3.74l1.16-.9Z"/></g></g></g></g></g></g></g></g></g></g></g></g></g></svg>