<?xml version="1.0" encoding="UTF-8" standalone="no"?>
<svg
   version="1.1"
   viewBox="0 0 1920 128"
   id="svg5624"
   sodipodi:docname="bookrec.svg"
   width="1920"
   height="128"
   inkscape:version="1.2.1 (9c6d41e410, 2022-07-14)"
   xmlns:inkscape="http://www.inkscape.org/namespaces/inkscape"
   xmlns:sodipodi="http://sodipodi.sourceforge.net/DTD/sodipodi-0.dtd"
   xmlns="http://www.w3.org/2000/svg"
   xmlns:svg="http://www.w3.org/2000/svg">
  <defs
     id="defs5628" />
  <sodipodi:namedview
     id="namedview5626"
     pagecolor="#ffffff"
     bordercolor="#000000"
     borderopacity="0.25"
     inkscape:showpageshadow="2"
     inkscape:pageopacity="0.0"
     inkscape:pagecheckerboard="0"
     inkscape:deskcolor="#d1d1d1"
     showgrid="false"
     inkscape:zoom="0.51445126"
     inkscape:cx="1081.7351"
     inkscape:cy="276.99417"
     inkscape:window-width="1920"
     inkscape:window-height="1001"
     inkscape:window-x="-9"
     inkscape:window-y="-9"
     inkscape:window-maximized="1"
     inkscape:current-layer="svg5624" />
  <g
     aria-label="BOOK RECOMMENDATIONS"
     id="text5611"
     style="font-size:96px;font-family:'Bookman Old Style';-inkscape-font-specification:'Bookman Old Style';fill:#f2f2f2;stroke:#666666;stroke-width:0.595029;stroke-dasharray:none;stroke-opacity:1"
     transform="matrix(1.6405056,0,0,1.6436219,-446.90506,-30.020828)">
    <path
       d="m 284.99435,29.862465 q 11.15625,-7.359375 25.03125,-7.359375 10.07813,0 16.45313,4.546875 6.375,4.5 6.375,11.671875 0,9.5625 -11.0625,12.796875 v 0.515625 q 1.125,0.28125 2.71875,0.75 5.20312,-1.21875 8.15625,-4.96875 3,-3.75 3,-9.046875 0,-6.65625 -5.48438,-11.8125 v -0.28125 l 0.51563,0.421875 q 6.14062,4.734375 6.14062,12.140625 0,10.21875 -10.59375,14.25 4.59375,2.109375 7.125,6 2.57813,3.890625 2.57813,8.765625 0,6.984375 -5.0625,11.203125 -5.0625,4.171875 -13.5,4.171875 h -33.5625 l 6.46875,-5.53125 V 57.799965 q -2.76563,0 -6.46875,0.5625 l -0.375,-1.359375 q 4.17187,-0.421875 6.84375,-0.421875 V 54.09684 h -1.17188 q -2.625,0 -6.60937,0.375 l 2.0625,-4.5 0.75,0.04687 q 1.82812,0.140625 2.76562,0.140625 1.40625,0 2.20313,0.140625 v -17.625 z m 14.67188,-0.703125 v 21.140625 q 0.51562,-0.04687 0.70312,-0.04687 l 0.84375,0.04687 q 0.1875,0 0.79688,0 V 31.12809 q 4.03125,-1.875 7.875,-1.875 4.40625,0 6.9375,1.59375 2.57812,1.59375 4.35937,5.4375 l -1.3125,-0.75 q -3.51562,-5.296875 -10.03125,-5.296875 -3.65625,0 -6.5625,2.0625 v 18 h 1.96875 q 8.95313,0 13.3125,-2.953125 4.40625,-3 4.40625,-9.140625 0,-5.390625 -3.65625,-8.671875 -3.60937,-3.328125 -9.51562,-3.328125 -5.20313,0 -10.125,2.953125 z m 0,24.984375 V 79.97184 h 2.34375 V 56.956215 q 3.32812,-0.234375 4.78125,-0.234375 7.78125,0 11.25,1.453125 3.51562,1.453125 5.57812,5.53125 h -0.5625 q -2.29687,-3.234375 -5.76562,-4.453125 -3.46875,-1.265625 -10.17188,-1.265625 l -3.84375,0.09375 V 79.97184 h 1.5 l 6.79688,-0.234375 q 13.21875,-0.9375 13.21875,-12.84375 0,-7.453125 -4.35938,-10.171875 -4.35937,-2.765625 -16.3125,-2.765625 -1.17187,0 -4.45312,0.1875 z m 35.10937,3.28125 q 5.01563,3.890625 5.01563,11.8125 0,7.96875 -5.57813,13.171875 -5.4375,5.0625 -15.98437,5.0625 h -31.875 l -0.79688,-1.265625 h 29.57813 q 9.65625,0 13.92187,-1.96875 9.46875,-4.40625 9.46875,-15.328125 0,-6.09375 -4.3125,-11.0625 z"
       style="font-family:Algerian;-inkscape-font-specification:Algerian;fill:#f2f2f2;stroke:#666666;stroke-width:0.595029;stroke-dasharray:none;stroke-opacity:1"
       id="path5765" />
    <path
       d="m 382.16623,33.94059 -0.79688,-0.46875 q -4.5,-2.484375 -8.25,-2.484375 -12.32812,0 -12.32812,24.234375 0,17.71875 7.64062,23.484375 l -0.42187,0.46875 q -4.6875,-3.328125 -6.70313,-8.71875 -1.96875,-5.4375 -1.96875,-14.671875 0,-26.015625 13.6875,-26.015625 6.23438,0 9.14063,4.171875 z m -10.03125,-11.0625 q 11.39062,0 18.1875,8.625 6.84375,8.625 6.84375,23.0625 0,13.640625 -6.75,21.75 -6.70313,8.109375 -18.04688,8.109375 -8.95312,0 -15.9375,-5.71875 -10.26562,-8.4375 -10.26562,-24.984375 0,-14.15625 7.03125,-22.5 7.03125,-8.34375 18.9375,-8.34375 z m 0,4.03125 q -15.84375,0 -15.84375,27.84375 0,25.734375 15.60937,25.734375 7.26563,0 11.0625,-6.796875 3.79688,-6.84375 3.79688,-19.96875 0,-14.859375 -3.65625,-20.71875 -3.84375,-6.09375 -10.96875,-6.09375 z m 14.95312,-1.640625 q 6.70313,3.234375 10.59375,11.0625 3.89063,7.828125 3.89063,18.09375 0,15.09375 -7.6875,24.375 -7.64063,9.28125 -20.10938,9.28125 -7.96875,0 -14.90625,-5.390625 v -0.234375 q 5.8125,4.265625 14.57813,4.265625 11.76562,0 19.3125,-8.859375 7.54687,-8.859375 7.54687,-22.640625 0,-10.265625 -3.46875,-17.953125 -3.42187,-7.6875 -9.75,-11.484375 z"
       style="font-family:Algerian;-inkscape-font-specification:Algerian;fill:#f2f2f2;stroke:#666666;stroke-width:0.595029;stroke-dasharray:none;stroke-opacity:1"
       id="path5767" />
    <path
       d="m 442.07248,33.94059 -0.79688,-0.46875 q -4.5,-2.484375 -8.25,-2.484375 -12.32812,0 -12.32812,24.234375 0,17.71875 7.64062,23.484375 l -0.42187,0.46875 q -4.6875,-3.328125 -6.70313,-8.71875 -1.96875,-5.4375 -1.96875,-14.671875 0,-26.015625 13.6875,-26.015625 6.23438,0 9.14063,4.171875 z m -10.03125,-11.0625 q 11.39062,0 18.1875,8.625 6.84375,8.625 6.84375,23.0625 0,13.640625 -6.75,21.75 -6.70313,8.109375 -18.04688,8.109375 -8.95312,0 -15.9375,-5.71875 -10.26562,-8.4375 -10.26562,-24.984375 0,-14.15625 7.03125,-22.5 7.03125,-8.34375 18.9375,-8.34375 z m 0,4.03125 q -15.84375,0 -15.84375,27.84375 0,25.734375 15.60937,25.734375 7.26563,0 11.0625,-6.796875 3.79688,-6.84375 3.79688,-19.96875 0,-14.859375 -3.65625,-20.71875 -3.84375,-6.09375 -10.96875,-6.09375 z m 14.95312,-1.640625 q 6.70313,3.234375 10.59375,11.0625 3.89063,7.828125 3.89063,18.09375 0,15.09375 -7.6875,24.375 -7.64063,9.28125 -20.10938,9.28125 -7.96875,0 -14.90625,-5.390625 v -0.234375 q 5.8125,4.265625 14.57813,4.265625 11.76562,0 19.3125,-8.859375 7.54687,-8.859375 7.54687,-22.640625 0,-10.265625 -3.46875,-17.953125 -3.42187,-7.6875 -9.75,-11.484375 z"
       style="font-family:Algerian;-inkscape-font-specification:Algerian;fill:#f2f2f2;stroke:#666666;stroke-width:0.595029;stroke-dasharray:none;stroke-opacity:1"
       id="path5769" />
    <path
       d="m 466.0256,23.487465 h 21.9375 l -6.51562,6.1875 v 28.3125 L 484.0256,55.03434 V 30.049965 l 5.25,-5.109375 0.70313,1.03125 -4.82813,4.6875 v 22.921875 l 14.53125,-17.34375 q 3.14063,-3.75 3.14063,-6.75 0,-1.78125 -1.78125,-3.375 -1.78125,-1.640625 -4.3125,-2.15625 v -0.46875 h 24.70312 v 0.46875 q -8.10937,1.96875 -17.48437,13.21875 l -6.51563,7.734375 17.29688,33.609375 7.875,5.109375 H 498.2756 l 6.14063,-4.59375 -11.625,-23.25 -7.64063,9.328125 v 13.40625 l 7.64063,8.953125 h -24.04688 l -1.26562,-1.265625 h 22.5 L 484.0256,79.03434 V 64.50309 l 8.15625,-10.03125 -1.03125,-2.0625 -9.70312,11.53125 v 14.578125 l 5.67187,5.109375 H 465.6506 l 6.42188,-5.484375 V 29.06559 Z m 57.75,4.265625 q -6.9375,0.46875 -13.82812,8.109375 l -8.20313,9.09375 16.54688,33.5625 13.26562,8.953125 h -29.8125 l -1.3125,-1.265625 h 27.14063 l -9.98438,-6.796875 -17.15625,-34.453125 8.71875,-9.84375 q 6.84375,-7.640625 14.10938,-8.34375 z"
       style="font-family:Algerian;-inkscape-font-specification:Algerian;fill:#f2f2f2;stroke:#666666;stroke-width:0.595029;stroke-dasharray:none;stroke-opacity:1"
       id="path5771" />
    <path
       d="m 556.82248,29.112465 q 11.10937,-6.421875 23.90625,-6.421875 9.9375,0 16.35937,4.3125 6.46875,4.3125 6.46875,10.96875 0,5.4375 -4.21875,9.65625 -4.21875,4.171875 -11.53125,6.046875 3.23438,8.90625 8.76563,17.34375 5.57812,8.4375 11.15625,12.9375 l -0.70313,0.234375 q -6.98437,2.390625 -13.6875,6.75 l -0.70312,0.46875 -0.23438,-1.5 q -3,-18.140625 -8.39062,-30.75 l -0.1875,-0.46875 q -3.23438,1.5 -8.67188,2.390625 l -0.375,0.04687 v 17.53125 l 8.25,8.8125 h -24.23437 l -0.75,-1.265625 h 22.3125 l -6.79688,-7.21875 V 60.09684 l 0.98438,-0.140625 q 5.34375,-0.5625 8.95312,-2.109375 -0.28125,-0.5625 -0.32812,-0.703125 l -0.46875,-1.359375 q -0.0469,-0.140625 -0.23438,-0.5625 -2.90625,0.84375 -10.96875,1.828125 l -0.51562,0.09375 v 20.90625 l 5.34375,5.578125 h -20.71875 l 6.09375,-5.578125 v -15.75 l -0.375,0.04687 q -2.71875,0.609375 -4.92188,1.359375 l -0.375,0.140625 -0.42187,-0.9375 q 2.0625,-0.796875 3.23437,-1.078125 l 2.48438,-0.609375 0.375,-0.09375 v -2.4375 q -2.76563,0 -6.89063,1.21875 l -0.51562,0.1875 q 0.0937,-0.65625 0.9375,-3.046875 0.0937,-0.1875 0.65625,-2.109375 0.0469,-0.140625 0.14062,-0.421875 2.10938,0.140625 3.28125,0.140625 1.26563,0 2.34375,-0.140625 v -23.0625 q -2.15625,-1.3125 -4.45312,-2.203125 z m 14.15625,-1.21875 V 53.15934 q 1.35937,0 2.57812,-0.234375 v -23.0625 q 2.57813,-0.703125 6.1875,-0.703125 9.14063,0 12.42188,6 -3.46875,-2.8125 -6.09375,-3.84375 -2.625,-1.078125 -6.28125,-1.078125 -2.85938,0 -5.01563,0.5625 v 22.125 l 0.51563,-0.09375 q 9.23437,-1.6875 13.6875,-5.296875 4.5,-3.65625 4.5,-9.46875 0,-5.203125 -4.03125,-8.578125 -4.03125,-3.421875 -10.17188,-3.421875 -4.92187,0 -8.29687,1.828125 z m 22.64062,28.125 q 2.95313,9.65625 10.45313,18.890625 4.6875,5.765625 11.85937,10.359375 -10.73437,2.859375 -20.15625,8.71875 l -0.42187,0.28125 -0.9375,-0.75 q 8.95312,-5.859375 19.07812,-8.625 -13.5,-9 -21.23437,-28.78125 l -0.28125,-0.796875 q 14.34375,-5.4375 14.34375,-16.59375 0,-4.59375 -3.70313,-10.03125 4.73438,4.3125 4.73438,10.96875 0,10.78125 -13.73438,16.359375 z"
       style="font-family:Algerian;-inkscape-font-specification:Algerian;fill:#f2f2f2;stroke:#666666;stroke-width:0.595029;stroke-dasharray:none;stroke-opacity:1"
       id="path5773" />
    <path
       d="m 666.41623,23.487465 -0.75,0.890625 q -4.78125,5.859375 -7.59375,13.453125 -0.46875,-1.078125 -0.70313,-1.59375 -2.57812,-5.625 -5.53125,-7.265625 -2.95312,-1.640625 -10.59375,-1.640625 -3.51562,0 -8.4375,0.234375 v 21.5625 h 3 V 30.049965 q 3.5625,-0.328125 6.79688,-0.328125 5.95312,0 8.76562,1.265625 2.8125,1.265625 5.01563,4.921875 -0.65625,-0.46875 -0.9375,-0.703125 -3.79688,-3 -5.48438,-3.5625 -1.6875,-0.5625 -6.65625,-0.5625 -1.5,0 -5.34375,0.1875 l -0.98437,0.04687 v 17.8125 h 8.625 l 6.04687,-8.296875 v 20.20313 l -6.04687,-7.828125 H 632.80685 V 79.50309 h 3 V 55.40934 h 10.17188 l 1.21875,1.21875 h -10.21875 v 22.875 q 9.5625,0 13.59375,-1.359375 4.03125,-1.359375 6.32812,-5.34375 l 2.48438,-4.265625 q 0.14062,-0.28125 0.5625,-1.03125 1.21875,5.15625 3,8.25 1.82812,3.09375 6,7.21875 H 616.4006 l 7.125,-5.4375 V 56.62809 q -3.9375,0.46875 -7.125,2.4375 l -0.65625,-0.984375 q 2.85938,-2.0625 7.78125,-2.671875 v -2.203125 q -0.79687,-0.09375 -1.125,-0.09375 -4.78125,0 -8.71875,3.515625 2.15625,-7.5 9.84375,-7.5 V 29.112465 l -7.125,-5.625 z m 2.25,3.28125 -0.32813,0.421875 q -5.71875,7.6875 -7.64062,12.890625 L 659.9006,39.09684 q 3.14063,-7.265625 8.10938,-13.3125 z M 654.88498,42.37809 v 20.71875 l -1.17188,-0.609375 v -20.71875 z m 19.40625,40.875 -2.4375,4.21875 h -51.1875 l -0.75,-1.265625 h 51.32812 l 1.59375,-2.953125 q -6.75,-6.234375 -9.51562,-13.3125 l 1.5,0.5625 q 2.57812,6 8.71875,12 z"
       style="font-family:Algerian;-inkscape-font-specification:Algerian;fill:#f2f2f2;stroke:#666666;stroke-width:0.595029;stroke-dasharray:none;stroke-opacity:1"
       id="path5775" />
    <path
       d="m 724.54123,24.94059 -0.51563,0.890625 q -4.21875,7.359375 -7.3125,14.71875 l -0.42187,1.078125 -0.60938,-0.328125 q -1.07812,-7.125 -5.01562,-11.296875 -3.9375,-4.171875 -9.51563,-4.171875 -5.95312,0 -9.9375,5.203125 -5.01562,6.46875 -5.01562,21.9375 0,13.3125 4.59375,20.859375 4.64062,7.546875 12.84375,7.546875 6.5625,0 10.45312,-4.359375 3.9375,-4.40625 4.6875,-12.5625 0.1875,-1.96875 1.59375,-1.96875 1.82813,0 1.82813,3.046875 0,4.546875 -2.0625,9.421875 -4.35938,10.3125 -18,10.3125 -12.1875,0 -19.35938,-8.53125 -7.17187,-8.578125 -7.17187,-23.15625 0,-13.453125 7.45312,-22.546875 7.45313,-9.09375 18.51563,-9.09375 5.25,0 11.95312,2.578125 3.51563,1.359375 5.8125,1.359375 2.48438,0 4.45313,-1.359375 z m -13.59375,8.109375 q -4.26563,-3.421875 -8.0625,-3.421875 -12.14063,0 -12.14063,23.15625 0,10.546875 2.8125,17.578125 2.8125,6.984375 7.92188,9.046875 v 0.46875 q -5.53125,-1.125 -8.85938,-8.484375 -3.28125,-7.40625 -3.28125,-18.703125 0,-24.234375 13.3125,-24.234375 4.5,0 8.29688,3.984375 z m 15.28125,32.203125 q -0.75,11.625 -6.51563,17.71875 -5.71875,6.046875 -16.03125,6.046875 -7.82812,0 -14.57812,-4.828125 v -0.375 q 6,3.9375 14.48437,3.9375 9.28125,0 15.14063,-5.953125 2.85937,-2.90625 4.21875,-6.515625 1.35937,-3.609375 1.82812,-9.5625 l 0.0937,-1.078125 z m 1.73437,-38.0625 -0.51562,0.890625 q -5.10938,8.71875 -8.15625,15.890625 l -1.26563,-0.609375 0.51563,-1.171875 q 2.34375,-4.921875 4.125,-8.15625 l 3.75,-6.65625 0.46875,-0.84375 z"
       style="font-family:Algerian;-inkscape-font-specification:Algerian;fill:#f2f2f2;stroke:#666666;stroke-width:0.595029;stroke-dasharray:none;stroke-opacity:1"
       id="path5777" />
    <path
       d="m 767.47873,33.94059 -0.79688,-0.46875 q -4.5,-2.484375 -8.25,-2.484375 -12.32812,0 -12.32812,24.234375 0,17.71875 7.64062,23.484375 l -0.42187,0.46875 q -4.6875,-3.328125 -6.70313,-8.71875 -1.96875,-5.4375 -1.96875,-14.671875 0,-26.015625 13.6875,-26.015625 6.23438,0 9.14063,4.171875 z m -10.03125,-11.0625 q 11.39062,0 18.1875,8.625 6.84375,8.625 6.84375,23.0625 0,13.640625 -6.75,21.75 -6.70313,8.109375 -18.04688,8.109375 -8.95312,0 -15.9375,-5.71875 -10.26562,-8.4375 -10.26562,-24.984375 0,-14.15625 7.03125,-22.5 7.03125,-8.34375 18.9375,-8.34375 z m 0,4.03125 q -15.84375,0 -15.84375,27.84375 0,25.734375 15.60937,25.734375 7.26563,0 11.0625,-6.796875 3.79688,-6.84375 3.79688,-19.96875 0,-14.859375 -3.65625,-20.71875 -3.84375,-6.09375 -10.96875,-6.09375 z m 14.95312,-1.640625 q 6.70313,3.234375 10.59375,11.0625 3.89063,7.828125 3.89063,18.09375 0,15.09375 -7.6875,24.375 -7.64063,9.28125 -20.10938,9.28125 -7.96875,0 -14.90625,-5.390625 v -0.234375 q 5.8125,4.265625 14.57813,4.265625 11.76562,0 19.3125,-8.859375 7.54687,-8.859375 7.54687,-22.640625 0,-10.265625 -3.46875,-17.953125 -3.42187,-7.6875 -9.75,-11.484375 z"
       style="font-family:Algerian;-inkscape-font-specification:Algerian;fill:#f2f2f2;stroke:#666666;stroke-width:0.595029;stroke-dasharray:none;stroke-opacity:1"
       id="path5779" />
    <path
       d="m 854.19748,23.487465 -6.42188,6.515625 v 48.140625 l 5.76563,5.484375 h -21.5625 l 6.51562,-5.484375 V 46.59684 l -14.85937,40.875 h -4.5 l -0.375,-1.265625 h 4.07812 l 15.65625,-43.59375 V 35.44059 l -17.4375,48.140625 H 817.7756 L 804.93185,45.75309 v 24.796875 q 0,4.96875 0.65625,7.03125 0.65625,2.0625 3.09375,4.546875 l 4.21875,5.34375 h -24.51562 l -0.84375,-1.265625 h 23.01562 l -1.73437,-2.578125 h -20.90625 l 0.98437,-0.515625 q 5.20313,-2.859375 6.84375,-5.765625 1.6875,-2.953125 1.6875,-9.28125 V 29.299965 l -6.1875,-5.8125 h 24.23438 l -6.79688,6.140625 13.26563,39.234375 1.6875,-4.078125 -12,-34.78125 6.14062,-4.546875 0.98438,0.796875 -5.85938,4.125 11.15625,32.671875 12.09375,-33.421875 -5.71875,-6.140625 z m -53.0625,11.109375 v 33.65625 q 0,7.734375 1.45312,10.640625 1.5,2.90625 6.14063,4.21875 l -0.42188,-0.703125 q -4.59375,-3.1875 -4.59375,-9.1875 V 69.75309 42.049965 Z m 55.6875,-7.453125 -5.29688,3.796875 v 47.25 l 8.15625,9.28125 h -24.89062 l -0.65625,-1.265625 h 22.6875 L 850.30685,78.84684 V 30.143715 l 5.53125,-3.796875 z"
       style="font-family:Algerian;-inkscape-font-specification:Algerian;fill:#f2f2f2;stroke:#666666;stroke-width:0.595029;stroke-dasharray:none;stroke-opacity:1"
       id="path5781" />
    <path
       d="m 924.41623,23.487465 -6.42188,6.515625 v 48.140625 l 5.76563,5.484375 h -21.5625 l 6.51562,-5.484375 V 46.59684 l -14.85937,40.875 h -4.5 l -0.375,-1.265625 h 4.07812 L 908.7131,42.612465 V 35.44059 l -17.4375,48.140625 h -3.28125 L 875.1506,45.75309 v 24.796875 q 0,4.96875 0.65625,7.03125 0.65625,2.0625 3.09375,4.546875 l 4.21875,5.34375 h -24.51562 l -0.84375,-1.265625 h 23.01562 l -1.73437,-2.578125 h -20.90625 l 0.98437,-0.515625 q 5.20313,-2.859375 6.84375,-5.765625 1.6875,-2.953125 1.6875,-9.28125 V 29.299965 l -6.1875,-5.8125 h 24.23438 l -6.79688,6.140625 13.26563,39.234375 1.6875,-4.078125 -12,-34.78125 6.14062,-4.546875 0.98438,0.796875 -5.85938,4.125 11.15625,32.671875 12.09375,-33.421875 -5.71875,-6.140625 z m -53.0625,11.109375 v 33.65625 q 0,7.734375 1.45312,10.640625 1.5,2.90625 6.14063,4.21875 L 878.5256,82.40934 q -4.59375,-3.1875 -4.59375,-9.1875 V 69.75309 42.049965 Z m 55.6875,-7.453125 -5.29688,3.796875 v 47.25 l 8.15625,9.28125 h -24.89062 l -0.65625,-1.265625 h 22.6875 L 920.5256,78.84684 V 30.143715 l 5.53125,-3.796875 z"
       style="font-family:Algerian;-inkscape-font-specification:Algerian;fill:#f2f2f2;stroke:#666666;stroke-width:0.595029;stroke-dasharray:none;stroke-opacity:1"
       id="path5783" />
    <path
       d="m 982.30685,23.487465 -0.75,0.890625 q -4.78125,5.859375 -7.59375,13.453125 -0.46875,-1.078125 -0.70312,-1.59375 -2.57813,-5.625 -5.53125,-7.265625 -2.95313,-1.640625 -10.59375,-1.640625 -3.51563,0 -8.4375,0.234375 v 21.5625 h 3 V 30.049965 q 3.5625,-0.328125 6.79687,-0.328125 5.95313,0 8.76563,1.265625 2.8125,1.265625 5.01562,4.921875 -0.65625,-0.46875 -0.9375,-0.703125 -3.79687,-3 -5.48437,-3.5625 -1.6875,-0.5625 -6.65625,-0.5625 -1.5,0 -5.34375,0.1875 l -0.98438,0.04687 v 17.8125 h 8.625 l 6.04688,-8.296875 v 20.20313 l -6.04688,-7.828125 H 948.69748 V 79.50309 h 3 V 55.40934 h 10.17187 l 1.21875,1.21875 h -10.21875 v 22.875 q 9.5625,0 13.59375,-1.359375 4.03125,-1.359375 6.32813,-5.34375 l 2.48437,-4.265625 q 0.14063,-0.28125 0.5625,-1.03125 1.21875,5.15625 3,8.25 1.82813,3.09375 6,7.21875 h -52.54687 l 7.125,-5.4375 V 56.62809 q -3.9375,0.46875 -7.125,2.4375 l -0.65625,-0.984375 q 2.85937,-2.0625 7.78125,-2.671875 v -2.203125 q -0.79688,-0.09375 -1.125,-0.09375 -4.78125,0 -8.71875,3.515625 2.15625,-7.5 9.84375,-7.5 V 29.112465 l -7.125,-5.625 z m 2.25,3.28125 -0.32812,0.421875 q -5.71875,7.6875 -7.64063,12.890625 l -0.79687,-0.984375 q 3.14062,-7.265625 8.10937,-13.3125 z M 970.7756,42.37809 v 20.71875 l -1.17187,-0.609375 v -20.71875 z m 19.40625,40.875 -2.4375,4.21875 h -51.1875 l -0.75,-1.265625 h 51.32813 l 1.59375,-2.953125 q -6.75,-6.234375 -9.51563,-13.3125 l 1.5,0.5625 q 2.57813,6 8.71875,12 z"
       style="font-family:Algerian;-inkscape-font-specification:Algerian;fill:#f2f2f2;stroke:#666666;stroke-width:0.595029;stroke-dasharray:none;stroke-opacity:1"
       id="path5785" />
    <path
       d="m 1044.6506,23.487465 q -5.3437,2.765625 -6.8906,5.0625 -2.3438,3.5625 -2.3438,10.734375 v 3.046875 41.296875 h -7.9218 l -22.125,-42.9375 v 25.453125 l -0.047,2.109375 0.5625,6.75 q 0.9375,4.6875 4.2656,6.9375 l 0.375,0.328125 q -6.4687,-2.15625 -6.4687,-13.828125 l 0.047,-4.40625 V 38.393715 l -2.5312,-4.921875 v 27 q 0,12.84375 1.6875,16.828125 1.6875,3.984375 7.9219,5.8125 l 4.0781,4.359375 h -25.40627 l -0.75,-1.265625 h 23.48437 l -2.4375,-2.578125 h -21.84375 q 5.71875,-2.0625 7.59375,-5.53125 1.875,-3.46875 1.875,-11.90625 v -37.5 l -6.23437,-5.203125 H 1015.26 l -6.6563,4.453125 22.6875,44.25 v -5.625 l -19.4531,-37.875 6.5625,-4.453125 0.8906,0.890625 -5.8125,3.9375 17.8125,34.96875 V 42.143715 39.65934 q 0,-8.15625 -1.3593,-10.875 -1.3125,-2.765625 -6.5625,-5.296875 z m 1.6406,3.46875 -0.8437,1.40625 q -3.6094,0.84375 -4.9219,3.140625 -1.2656,2.25 -1.2656,7.640625 V 87.47184 h -10.0781 l -0.6094,-1.265625 h 9.4219 v -46.59375 q 0,-6.609375 1.6875,-9.1875 1.7343,-2.625 6.6093,-3.46875 z"
       style="font-family:Algerian;-inkscape-font-specification:Algerian;fill:#f2f2f2;stroke:#666666;stroke-width:0.595029;stroke-dasharray:none;stroke-opacity:1"
       id="path5787" />
    <path
       d="m 1050.2287,23.487465 h 18.4688 q 13.5469,0 20.0625,5.203125 9.7031,7.6875 9.7031,24.09375 0,17.015625 -8.4844,24.609375 -3.8437,3.421875 -8.625,4.828125 -4.7343,1.40625 -12.6093,1.40625 h -19.9219 l 6.4219,-4.921875 V 28.87809 Z m 14.2032,3.9375 v 52.59375 h 2.5781 v -49.5 q 2.4375,-0.375 4.4531,-0.375 3.8438,0 6.0469,0.796875 2.25,0.75 4.5,2.8125 -4.9688,-2.34375 -10.6406,-2.34375 -1.2188,0 -3.1875,0.1875 v 48.421875 q 5.25,0 7.9687,-0.84375 2.7188,-0.890625 5.1563,-3.375 6.7968,-6.890625 6.7968,-23.15625 0,-15.890625 -7.3593,-21.703125 -4.4532,-3.515625 -14.1094,-3.515625 z m -12.7032,60.046875 -0.7031,-1.265625 h 17.1563 q 12.6562,0 19.2187,-3.515625 14.1094,-7.5 14.1094,-29.015625 0,-14.390625 -6.3281,-21.375 l -1.875,-2.0625 q -0.094,-0.09375 -0.5625,-0.65625 9.9375,6.234375 9.9375,23.859375 0,18.515625 -9.8438,27.28125 -7.5469,6.75 -24.6562,6.75 z"
       style="font-family:Algerian;-inkscape-font-specification:Algerian;fill:#f2f2f2;stroke:#666666;stroke-width:0.595029;stroke-dasharray:none;stroke-opacity:1"
       id="path5789" />
    <path
       d="m 1150.2131,23.487465 -4.875,5.53125 7.6875,20.4375 1.875,-1.03125 -6.9375,-18.46875 4.9688,-5.71875 1.2187,0.515625 -4.7344,5.484375 6.5625,17.484375 q 0.5625,-0.421875 0.6563,-0.515625 l 1.5469,-1.3125 q 1.4062,-1.125 1.7812,-1.59375 1.2188,5.34375 3.75,9.5625 -1.3594,-0.09375 -1.9687,-0.09375 -4.4532,0 -6.5157,1.40625 l 8.4844,23.015625 7.0313,5.4375 h -23.6719 l 6.4687,-5.4375 -5.2031,-13.6875 q -5.1562,5.203125 -7.9219,9.890625 l -1.0781,-0.28125 q 2.7656,-4.59375 8.25,-10.265625 l 0.375,-0.46875 -0.8906,-2.0625 q -5.5781,4.640625 -9.2344,10.78125 l -0.8437,-1.359375 q -2.4375,-3.890625 -6.2344,-8.859375 l -0.4688,-0.5625 q -3.6093,8.015625 -3.6093,13.03125 0,2.953125 0.9843,5.015625 1.0313,2.015625 4.875,6.796875 0.3282,0.421875 1.0313,1.3125 H 1108.26 l -0.9375,-1.265625 h 23.8594 l -0.7969,-0.984375 q -3.0938,-3.75 -4.0781,-5.8125 -0.9375,-2.109375 -0.9375,-4.921875 0,-4.78125 3.8906,-14.25 l -2.0625,-2.15625 q -0.6094,1.5 -1.5469,4.40625 l -1.5469,4.78125 q -1.2656,3.84375 -1.2656,6.375 0,2.625 0.8906,4.359375 0.8907,1.734375 3.75,4.734375 0.2813,0.28125 0.8438,0.890625 h -23.4375 q 6.7031,-3.46875 10.5937,-9.328125 3.9375,-5.859375 7.7813,-18.09375 l 0.1875,-0.65625 q -2.4844,-2.109375 -7.1719,-2.578125 2.5781,-3.84375 3.9844,-8.015625 0.6562,0.609375 0.7969,0.75 l 2.1093,1.96875 q 1.0782,1.03125 2.5782,2.109375 l 0.8437,-2.0625 -0.5625,-0.46875 q -2.3437,-2.0625 -3.9375,-3.328125 l -0.4219,-0.328125 0.75,-1.03125 q 2.4844,1.640625 4.7813,3.796875 l 6.375,-17.53125 -4.9688,-5.34375 z m -11.5781,15.046875 -5.1563,13.59375 q 0.4219,0.46875 0.4688,0.5625 l 1.9219,2.15625 q 1.5468,1.6875 3.9375,5.25 l 0.4687,0.703125 q 2.0156,-2.53125 4.7813,-5.015625 z m -2.1094,-5.4375 -7.4531,19.6875 q 3.5625,3.65625 6.1406,7.21875 l 2.1563,3 q 0.047,0.04687 0.4687,0.609375 0.4219,-0.421875 0.4688,-0.515625 l 0.6562,-0.796875 q 0.1406,-0.1875 0.5156,-0.609375 -3.2812,-5.0625 -7.6406,-9.140625 l 6,-15.84375 z m 27.5625,13.453125 q 1.0313,4.21875 5.1563,11.578125 -1.0313,-0.140625 -1.1719,-0.140625 l -3.7969,-0.328125 q -2.5781,-0.234375 -3.75,-0.234375 -0.1875,0 -0.9375,0.04687 l 7.8281,20.765625 10.4532,9.234375 h -27.1407 l -0.8906,-1.265625 h 24.8906 l -8.4375,-7.453125 -8.3437,-22.078125 q 1.5937,-0.421875 3.6562,-0.421875 2.5313,0 5.625,0.421875 l -0.5625,-1.03125 q -3,-5.53125 -4.0312,-9.984375 z"
       style="font-family:Algerian;-inkscape-font-specification:Algerian;fill:#f2f2f2;stroke:#666666;stroke-width:0.595029;stroke-dasharray:none;stroke-opacity:1"
       id="path5791" />
    <path
       d="m 1231.7287,23.487465 q -0.4218,0.796875 -0.5625,1.078125 l -3.1875,5.625 q -1.6406,3 -3.0468,7.5 l -0.094,0.234375 -0.4687,-0.328125 -0.1407,-0.609375 q -1.3593,-5.34375 -3.8906,-7.40625 -2.4844,-2.0625 -7.6406,-2.0625 -2.1094,0 -4.2188,0.1875 h -0.5625 v 50.8125 l 5.5313,5.109375 h -21.4219 l 6.5625,-5.484375 V 31.50309 l -3.3281,-0.04687 q -4.8281,0 -6.8906,1.921875 -2.0157,1.875 -2.3907,6.65625 h -1.2187 q 0.5156,-5.484375 2.8125,-7.640625 2.3437,-2.15625 7.6875,-2.15625 l 2.8125,0.04687 h 0.5156 v -2.296875 q -2.3906,-0.28125 -4.5469,-0.28125 -6.0468,0 -8.7187,2.484375 -2.6719,2.4375 -2.9531,8.296875 h -0.5625 q -2.0157,-6.515625 -6.2344,-14.53125 l -0.2813,-0.46875 z m 2.9532,2.953125 q -3.2344,4.125 -6.7969,13.6875 l -0.1875,0.46875 -1.0313,-0.890625 0.1407,-0.421875 q 3.4687,-9.703125 6.7031,-13.5 l 0.2344,-0.28125 z m -12.5157,7.3125 q -3.6093,-2.34375 -8.4375,-2.34375 -1.0781,0 -2.25,0.140625 l 0.1875,47.109375 7.4532,8.8125 h -23.9532 l -1.0781,-1.265625 h 22.4531 L 1210.26,79.03434 V 30.19059 l 2.5312,-0.04687 q 4.5469,0 6.4219,0.75 1.9219,0.703125 2.9531,2.859375 z"
       style="font-family:Algerian;-inkscape-font-specification:Algerian;fill:#f2f2f2;stroke:#666666;stroke-width:0.595029;stroke-dasharray:none;stroke-opacity:1"
       id="path5793" />
    <path
       d="m 1235.01,23.487465 h 22.2187 l -6.2812,6.375 V 78.65934 l 5.9062,4.96875 H 1235.01 l 6.5156,-5.390625 V 29.34684 Z m 24.3281,2.671875 -4.7812,4.734375 V 78.65934 l 7.875,8.8125 h -24.375 l -1.1719,-1.265625 h 22.7812 l -6.4218,-7.078125 V 30.47184 l 5.2968,-5.25 z"
       style="font-family:Algerian;-inkscape-font-specification:Algerian;fill:#f2f2f2;stroke:#666666;stroke-width:0.595029;stroke-dasharray:none;stroke-opacity:1"
       id="path5795" />
    <path
       d="m 1300.6819,33.94059 -0.7969,-0.46875 q -4.5,-2.484375 -8.25,-2.484375 -12.3281,0 -12.3281,24.234375 0,17.71875 7.6406,23.484375 l -0.4219,0.46875 q -4.6875,-3.328125 -6.7031,-8.71875 -1.9688,-5.4375 -1.9688,-14.671875 0,-26.015625 13.6875,-26.015625 6.2344,0 9.1407,4.171875 z m -10.0313,-11.0625 q 11.3906,0 18.1875,8.625 6.8438,8.625 6.8438,23.0625 0,13.640625 -6.75,21.75 -6.7032,8.109375 -18.0469,8.109375 -8.9531,0 -15.9375,-5.71875 -10.2656,-8.4375 -10.2656,-24.984375 0,-14.15625 7.0312,-22.5 7.0313,-8.34375 18.9375,-8.34375 z m 0,4.03125 q -15.8437,0 -15.8437,27.84375 0,25.734375 15.6093,25.734375 7.2657,0 11.0625,-6.796875 3.7969,-6.84375 3.7969,-19.96875 0,-14.859375 -3.6562,-20.71875 -3.8438,-6.09375 -10.9688,-6.09375 z m 14.9531,-1.640625 q 6.7032,3.234375 10.5938,11.0625 3.8906,7.828125 3.8906,18.09375 0,15.09375 -7.6875,24.375 -7.6406,9.28125 -20.1094,9.28125 -7.9687,0 -14.9062,-5.390625 v -0.234375 q 5.8125,4.265625 14.5781,4.265625 11.7656,0 19.3125,-8.859375 7.5469,-8.859375 7.5469,-22.640625 0,-10.265625 -3.4688,-17.953125 -3.4218,-7.6875 -9.75,-11.484375 z"
       style="font-family:Algerian;-inkscape-font-specification:Algerian;fill:#f2f2f2;stroke:#666666;stroke-width:0.595029;stroke-dasharray:none;stroke-opacity:1"
       id="path5797" />
    <path
       d="m 1377.7444,23.487465 q -5.3438,2.765625 -6.8907,5.0625 -2.3437,3.5625 -2.3437,10.734375 v 3.046875 41.296875 h -7.9219 l -22.125,-42.9375 v 25.453125 l -0.047,2.109375 0.5625,6.75 q 0.9375,4.6875 4.2657,6.9375 l 0.375,0.328125 q -6.4688,-2.15625 -6.4688,-13.828125 l 0.047,-4.40625 V 38.393715 l -2.5313,-4.921875 v 27 q 0,12.84375 1.6875,16.828125 1.6875,3.984375 7.9219,5.8125 l 4.0781,4.359375 h -25.4062 l -0.75,-1.265625 h 23.4844 l -2.4375,-2.578125 h -21.8438 q 5.7188,-2.0625 7.5938,-5.53125 1.875,-3.46875 1.875,-11.90625 v -37.5 l -6.2344,-5.203125 h 23.7187 l -6.6562,4.453125 22.6875,44.25 v -5.625 l -19.4531,-37.875 6.5625,-4.453125 0.8906,0.890625 -5.8125,3.9375 17.8125,34.96875 V 42.143715 39.65934 q 0,-8.15625 -1.3594,-10.875 -1.3125,-2.765625 -6.5625,-5.296875 z m 1.6406,3.46875 -0.8438,1.40625 q -3.6093,0.84375 -4.9218,3.140625 -1.2657,2.25 -1.2657,7.640625 V 87.47184 h -10.0781 l -0.6094,-1.265625 h 9.4219 v -46.59375 q 0,-6.609375 1.6875,-9.1875 1.7344,-2.625 6.6094,-3.46875 z"
       style="font-family:Algerian;-inkscape-font-specification:Algerian;fill:#f2f2f2;stroke:#666666;stroke-width:0.595029;stroke-dasharray:none;stroke-opacity:1"
       id="path5799" />
    <path
       d="m 1425.9319,24.00309 q -2.4375,3.28125 -3.8907,6.84375 -2.8593,7.03125 -3.7968,8.625 l -0.2344,0.28125 q -0.1875,-0.515625 -0.2813,-0.796875 -1.3125,-4.21875 -2.1562,-5.859375 -0.8438,-1.640625 -2.5313,-3.140625 -4.2656,-3.796875 -9.7031,-3.796875 -5.0156,0 -8.3437,2.8125 -3.3282,2.765625 -3.3282,6.984375 0,7.875 11.8594,10.734375 l 7.9219,1.921875 q 16.9219,4.078125 16.9219,17.859375 0,7.6875 -5.8125,12.9375 -5.7657,5.203125 -14.2969,5.203125 -5.3438,0 -11.9531,-1.640625 l -5.4844,-1.359375 q -3.3281,-0.796875 -5.4844,-0.796875 -2.8594,0 -5.9062,1.828125 l -0.375,-0.65625 q 5.8125,-8.765625 8.1562,-16.6875 l 0.8438,0.234375 q 0.9843,7.359375 5.9062,11.4375 4.9219,4.078125 12.8906,4.078125 6.2813,0 9.9844,-2.90625 3.7031,-2.90625 3.7031,-7.828125 0,-5.671875 -5.1562,-9.375 -3.7031,-2.625 -15.1875,-4.875 -8.8594,-1.734375 -12.8438,-5.765625 -3.9843,-4.03125 -3.9843,-11.203125 0,-7.40625 5.2968,-12 5.3438,-4.640625 13.875,-4.640625 5.4844,0 12.7969,1.96875 3.4219,0.9375 5.0625,0.9375 2.2969,0 5.0156,-1.59375 z m 2.9062,1.96875 -0.4219,0.703125 q -1.9218,3.234375 -3.2812,6.1875 -3.2813,6.890625 -3.7031,7.6875 l -0.2344,0.328125 -1.125,-0.46875 0.1875,-0.421875 q 1.3594,-3.09375 3.9375,-8.0625 l 3.1875,-6.1875 0.2344,-0.375 z m -13.6875,9.328125 q -5.1562,-5.484375 -11.0625,-5.484375 -3.5625,0 -5.9062,2.0625 -2.3438,2.0625 -2.3438,5.25 0,3.46875 4.7344,7.125 l 0.375,0.234375 -0.2344,0.375 q -6.1875,-2.765625 -6.1875,-8.015625 0,-3.65625 2.625,-5.953125 2.625,-2.296875 6.8438,-2.296875 4.0312,0 7.0312,1.734375 3.0469,1.6875 4.4531,4.78125 z m 10.7813,18.609375 q 6.375,4.828125 6.375,13.21875 0,8.953125 -6.9375,15.1875 -6.9375,6.1875 -16.875,6.1875 -5.0625,0 -9.1407,-1.03125 l -7.5,-1.828125 q -2.625,-0.65625 -5.625,-0.65625 -2.6718,0 -4.9218,1.078125 l -0.5625,-1.359375 q 2.4375,-1.125 4.9687,-1.125 2.8125,0 6.4219,0.84375 l 7.2187,1.734375 q 4.3125,1.03125 9.0938,1.03125 9.375,0 15.9375,-5.953125 6.6094,-6 6.6094,-14.484375 0,-7.171875 -5.0625,-12.5625 z m -33.375,13.5 q 1.7343,8.4375 9.2812,11.953125 v 0.375 q -8.7187,-2.53125 -10.5469,-12.09375 z m -5.8594,-15.1875 1.5937,0.890625 q 1.5469,2.765625 9.0469,4.59375 l 7.5469,1.875 q 7.6875,1.921875 10.2187,3.328125 2.5782,1.359375 3.6563,4.171875 l -0.3281,0.1875 q -2.1094,-2.4375 -4.5938,-3.5625 -2.4375,-1.125 -9.4219,-2.765625 -10.125,-2.34375 -13.5937,-4.03125 -3.4688,-1.734375 -4.125,-4.6875 z"
       style="font-family:Algerian;-inkscape-font-specification:Algerian;fill:#f2f2f2;stroke:#666666;stroke-width:0.595029;stroke-dasharray:none;stroke-opacity:1"
       id="path5801" />
  </g>
</svg>
